<svg xmlns="http://www.w3.org/2000/svg" width="512" height="512"><path d="M272 175.996h-32c-26.464 0-48 21.536-48 48v64c0 26.464 21.536 48 48 48h32c26.464 0 48-21.536 48-48v-64c0-26.464-21.536-48-48-48zm-112 48c0-15.328 4.544-29.536 12.064-41.728l-104-48.064c-14.976-6.784-32.192-5.504-46.048 3.424C8.224 146.524 0 161.564 0 177.916v156.16c0 16.352 8.224 31.392 22.016 40.288 7.936 5.12 16.96 7.712 26.048 7.712 6.784 0 13.632-1.44 20.032-4.384l103.904-48c-7.456-12.16-12-26.368-12-41.696v-64zm329.984-86.368c-13.92-8.928-31.104-10.176-46.144-3.36l-103.904 48c7.52 12.192 12.064 26.4 12.064 41.728v64c0 15.328-4.544 29.536-12.064 41.728l104 48.032a47.965 47.965 0 0 0 19.936 4.352c9.088 0 18.144-2.592 26.08-7.712C503.744 365.5 512 350.428 512 334.076v-156.16c0-16.352-8.224-31.392-22.016-40.288z" fill="#FFF"/></svg>