<svg xmlns="http://www.w3.org/2000/svg" viewBox="0 0 60.508 60.508" width="512" height="512"><g fill="#FFF"><path d="M36.26 10.721c-1.702-.011-2.96.876-3.677 2.167-.057.048-.113.083-.17.138-2.154 2.125-4.479 3.915-7.124 5.291-.08-.706-.161-1.411-.24-2.117-.259-2.329-1.723-4.316-4.271-4.333-2.134-.014-4.592 1.938-4.333 4.271.497 4.455 1.009 8.911 1.683 13.343l-7.701 15.07 9.604.158v13.028c0 3.695 5.733 3.695 5.733 0V44.803l1.769.03-.041-14.48c.833.25 1.704.41 2.607.475.209.995.754 1.821 1.472 2.435a3.12 3.12 0 0 0-.075.68v23.509c0 3.694 5.733 3.694 5.733 0V33.943c0-.116-.021-.221-.033-.33.572-.51.998-1.252 1.173-2.262.929-5.405 1.554-10.85 2.161-16.298.259-2.332-2.11-4.316-4.27-4.332zm-5.74 15.524c-1.688-.122-3.192-.675-4.472-1.735-.062-.458-.128-.915-.186-1.374a30.037 30.037 0 0 0 5.495-3.192c-.25 2.104-.522 4.205-.837 6.301z"/><circle cx="21.322" cy="6.462" r="4.819"/><circle cx="33.478" cy="4.818" r="4.818"/><path d="M52.853 4.689a.14.14 0 0 1 .021.001c-.164-1.492-1.383-2.296-2.534-2.296-.11 0-.219.007-.325.021-.719.082-1.378.456-1.892 1.074-.586-.705-1.358-1.094-2.193-1.094h-.025c-1.149 0-2.369.804-2.533 2.295l.021-.001a2.878 2.878 0 0 0-.021.365c0 1.776 1.574 3.017 2.727 3.921.206.164.385.304.547.428l-.002.004.012.01c.719.542.982.744 1.277 1.037a.25.25 0 0 0 .18.074.047.047 0 0 0 .017-.003l.005.002a.26.26 0 0 0 .184-.075c.211-.21.41-.375.771-.652.019-.013.03-.024.047-.037l.247-.189c.068-.049.135-.101.211-.158l.014-.011v-.001c.158-.124.34-.262.547-.426 1.147-.905 2.726-2.146 2.726-3.922a5.758 5.758 0 0 0-.029-.367zM10.542 17.843l.125-.096.108-.081.004-.005v-.001c.082-.062.174-.133.277-.215.584-.458 1.382-1.086 1.382-1.987 0-.065-.004-.125-.012-.187 0 0 .008 0 .012.002a1.282 1.282 0 0 0-1.449-1.152c-.363.042-.698.23-.958.542-.296-.356-.688-.554-1.111-.554l-.009.001a1.28 1.28 0 0 0-1.285 1.163h.011c-.007.06-.011.12-.011.184 0 .901.797 1.529 1.38 1.987l.277.217-.001.001.006.005c.363.275.498.378.647.526a.127.127 0 0 0 .091.038l.008-.001h.003a.133.133 0 0 0 .091-.037 3.93 3.93 0 0 1 .414-.35z"/></g></svg>