<svg xmlns="http://www.w3.org/2000/svg" viewBox="0 0 67.791 67.791" width="512" height="512"><path d="M60.069 0H42.067a2.77 2.77 0 0 0-.001 5.539h11.316l-9.979 9.979a15.285 15.285 0 0 0-7.707-2.086c-2.653 0-5.601.747-7.618 2.115a15.273 15.273 0 0 0-7.754-2.115c-8.49 0-15.372 6.882-15.372 15.372 0 7.542 5.437 13.803 12.602 15.109v10.602h-6.213a2.77 2.77 0 0 0 0 5.54h6.213v4.967a2.77 2.77 0 0 0 5.54 0v-4.967h6.213a2.77 2.77 0 0 0 0-5.54h-6.213V43.921a15.261 15.261 0 0 0 4.682-1.67l.198-.171a15.276 15.276 0 0 0 7.722 2.095c8.49 0 15.372-6.882 15.372-15.372a15.3 15.3 0 0 0-3.437-9.68l9.668-9.668v11.316c0 .764.31 1.457.811 1.958a2.77 2.77 0 0 0 4.728-1.959V2.769A2.77 2.77 0 0 0 60.069 0zM23.545 38.194l-.013.009c-3.371 1.017-7.469.413-10.185-2.423-3.763-3.929-3.847-10.106 0-13.953 2.775-2.775 6.803-3.537 10.277-2.308-2.095 2.577-3.301 6.002-3.301 9.285a15.295 15.295 0 0 0 3.222 9.39zm4.47-3.225c-.067-.084-.149-.16-.213-.245-2.632-3.506-2.519-8.698.133-12.197 2.912 3.54 3.03 8.793.08 12.442zm14.658.811c-2.673 2.673-6.511 3.489-9.894 2.447-.082-.025-.161-.063-.243-.091 2.031-2.451 3.161-5.977 3.161-9.333 0-3.528-1.201-6.768-3.199-9.362 3.358-1.073 7.57-.221 10.176 2.385 3.846 3.848 3.846 10.108-.001 13.954z" fill="#FFF"/></svg>