<?xml version="1.0" encoding="UTF-8"?>
<!DOCTYPE svg PUBLIC "-//W3C//DTD SVG 1.1//EN" "http://www.w3.org/Graphics/SVG/1.1/DTD/svg11.dtd">
<!-- Creator: CorelDRAW X7 -->
<svg xmlns="http://www.w3.org/2000/svg" xml:space="preserve" width="200mm" height="209.87mm" version="1.1" style="shape-rendering:geometricPrecision; text-rendering:geometricPrecision; image-rendering:optimizeQuality; fill-rule:evenodd; clip-rule:evenodd"
viewBox="0 0 20000 20987"
 xmlns:xlink="http://www.w3.org/1999/xlink">
 <defs>
  <style type="text/css">
   <![CDATA[
    .fil0 {fill:#DC2225}
    .fil2 {fill:#008A44}
    .fil1 {fill:#224A85}
    .fil3 {fill:#224A85;fill-rule:nonzero}
   ]]>
  </style>
 </defs>
 <g id="Слой_x0020_1">
  <metadata id="CorelCorpID_0Corel-Layer"/>
  <g id="_344317400032">
   <polygon class="fil0" points="7878,4018 6529,7604 5333,10788 3943,14472 3414,14013 3178,14569 2886,15112 2427,15737 1871,16432 1510,16835 787,17572 759,17628 1121,17447 1524,17183 2163,16724 2789,16196 3693,15417 4568,14430 5111,13763 5736,12873 6028,13124 6348,13402 6570,12720 6946,11789 7404,10607 7849,9426 9629,4796 11186,4796 10769,3740 9321,2 6384,4046 "/>
   <polygon class="fil1" points="9517,0 10254,0 14175,9662 16288,14903 15759,15376 "/>
   <polygon class="fil1" points="9768,5033 11325,5033 15593,15542 15273,15821 13424,14041 12840,12484 11895,12498 10769,11372 12465,11372 10560,6409 10532,6367 8739,11372 9740,11372 8725,12526 8350,12512 8308,12526 8072,13318 7251,14250 6487,13582 "/>
   <polygon class="fil1" points="10282,11928 15231,16780 16385,15779 17650,16905 18359,17461 18623,17670 18999,17906 18345,17628 17984,17419 17386,17072 16955,16808 16913,16808 16788,17670 16274,16557 15287,17030 10949,14277 10004,15640 9768,13666 7293,15556 6278,15487 5792,16696 5291,15459 3873,16488 2219,17419 1148,18017 2038,17419 2747,16905 3693,16182 4429,15515 5875,13944 7251,15153 "/>
   <polygon class="fil2" points="18887,18351 968,18420 1426,18323 2233,18184 3234,18045 4805,17878 6098,17781 6612,17781 7265,17753 8072,17767 8961,17822 9921,17920 11005,18059 12214,18170 13257,18212 14411,18212 15801,18170 16816,18114 17428,18156 17956,18253 "/>
   <path class="fil3" d="M1754 20135l0 -244 1481 -1 0 772c-227,108 -462,189 -704,244 -241,54 -490,81 -744,81 -343,0 -656,-44 -936,-131 -281,-88 -493,-215 -636,-380 -143,-166 -215,-351 -215,-555 0,-203 72,-392 214,-567 142,-176 347,-306 614,-392 267,-85 575,-127 923,-127 253,0 482,24 686,73 204,48 365,116 480,204 117,87 205,200 266,340l-418 69c-53,-107 -118,-190 -195,-250 -78,-61 -190,-110 -335,-146 -144,-36 -305,-55 -481,-55 -212,0 -395,20 -549,58 -155,38 -278,89 -374,151 -94,63 -167,131 -220,206 -89,129 -134,268 -134,419 0,186 54,341 161,466 108,125 264,217 469,278 206,60 423,91 653,91 201,0 397,-23 587,-69 192,-46 336,-95 434,-147l0 -388 -1027 0zm1779 817l1343 -2082 499 0 1431 2082 -527 0 -408 -631 -1463 0 -383 631 -492 0zm1009 -855l1186 0 -365 -576c-111,-175 -194,-319 -248,-432 -45,134 -107,266 -189,398l-384 610zm2641 855l0 -2082 1550 0c312,0 549,19 711,56 162,38 292,104 389,198 97,95 145,200 145,314 0,148 -79,272 -241,373 -160,102 -408,166 -744,194 123,35 216,69 279,103 136,74 263,167 385,277l608 567 -582 0 -463 -434c-135,-124 -246,-220 -334,-286 -87,-66 -166,-113 -235,-139 -69,-27 -139,-45 -211,-56 -53,-6 -138,-10 -258,-10l-536 0 0 925 -463 0zm463 -1163l995 0c211,0 377,-13 495,-39 120,-26 211,-68 272,-125 62,-57 93,-119 93,-187 0,-98 -59,-179 -180,-243 -119,-63 -309,-95 -569,-95l-1106 0 0 689zm2674 1163l1343 -2082 498 0 1432 2082 -528 0 -408 -631 -1462 0 -384 631 -491 0zm1008 -855l1187 0 -366 -576c-111,-175 -194,-319 -247,-432 -45,134 -108,266 -189,398l-385 610zm2630 855l0 -2082 474 0 1837 1634 0 -1634 444 0 0 2082 -475 0 -1837 -1636 0 1636 -443 0zm4422 0l0 -1836 -1152 0 0 -246 2772 0 0 246 -1157 0 0 1836 -463 0z"/>
  </g>
 </g>
</svg>
