<?xml version="1.0" encoding="UTF-8"?>
<!DOCTYPE svg PUBLIC "-//W3C//DTD SVG 1.1//EN" "http://www.w3.org/Graphics/SVG/1.1/DTD/svg11.dtd">
<!-- Creator: CorelDRAW 2018 (64-Bit Оценочная версия) -->
<svg xmlns="http://www.w3.org/2000/svg" xml:space="preserve" width="50mm" height="50mm" version="1.1" style="shape-rendering:geometricPrecision; text-rendering:geometricPrecision; image-rendering:optimizeQuality; fill-rule:evenodd; clip-rule:evenodd"
viewBox="0 0 5000 5000"
 xmlns:xlink="http://www.w3.org/1999/xlink">
 <defs>
  <style type="text/css">
   <![CDATA[
    .fil1 {fill:#FEFEFE}
    .fil0 {fill:#2B2A29}
    .fil2 {fill:#B0CB1F}
    .fil3 {fill:#FEFEFE;fill-rule:nonzero}
   ]]>
  </style>
 </defs>
 <g id="Слой_x0020_1">
  <metadata id="CorelCorpID_0Corel-Layer"/>
  <g id="_2479159232">
   <path class="fil0" d="M2503.65 18.73l2479.02 0 0 4952.16 -2479.02 0 0 -4952.16zm2214.61 3091.29l-153.07 117.37c-84.15,-109.75 -185.47,-192.92 -303.86,-249.57 -117.95,-56.65 -247.58,-84.97 -389.42,-84.97 -154.38,0 -297.58,37.31 -429.44,111.5 -131.92,74.18 -233.67,174.02 -306.15,299.03 -72.47,125 -108.95,266.18 -108.95,422.23 0,236.5 81.03,433.89 243.1,591.74 162.07,158.23 366.46,237.37 613.6,237.37 271.47,0 498.38,-106.1 681.12,-318.31l153.07 115.97c-96.79,122.77 -217.42,218.09 -361.93,285.08 -144.52,67 -306.15,100.76 -484.42,100.76 -339.41,0 -607.27,-112.9 -803.1,-338.62 -164.36,-190.2 -246.71,-420.39 -246.71,-689.73 0,-283.29 99.47,-522.07 298.46,-715.43 199.43,-193.8 448.86,-290.48 748.68,-290.48 180.94,0 344.37,35.56 490.25,106.59 145.82,71.51 265.57,171.3 358.77,299.47z"/>
   <path class="fil1" d="M24.63 2494.81l2479.02 0 0 2452.51 -2479.02 0 0 -2452.51zm497.31 2194.83l0 -1937.1 402.5 0c289.9,0 500.56,23.37 631.6,69.72 188.19,66.07 335.37,179.85 441.17,342.61 105.79,162.31 158.91,355.67 158.91,580.51 0,194.24 -41.88,364.67 -126.03,512.16 -83.76,147.45 -193.15,256.72 -326.87,326.87 -134.15,70.15 -322.34,105.23 -564.08,105.23l-617.2 0zm186.39 -183.45l223.74 0c267.43,0 452.46,-16.66 555.97,-49.94 145.43,-47.66 260.22,-132.63 343.5,-255.84 83.27,-123.64 124.71,-274.3 124.71,-452.36 0,-186.6 -45.04,-346.68 -135.51,-478.88 -90.04,-132.63 -216.11,-223.43 -377.26,-272.45 -121.11,-36.87 -320.54,-55.34 -598.28,-55.34l-136.87 0 0 1564.81z"/>
   <polygon class="fil2" points="1.44,18.75 2503.66,18.75 2503.66,2471.25 1.44,2471.25 "/>
   <path class="fil3" d="M4718.26 3110.02l-153.07 117.37c-84.15,-109.75 -185.47,-192.92 -303.86,-249.57 -117.95,-56.65 -247.58,-84.97 -389.42,-84.97 -154.38,0 -297.58,37.31 -429.44,111.5 -131.92,74.18 -233.67,174.02 -306.15,299.03 -72.47,125 -108.95,266.18 -108.95,422.23 0,236.5 81.03,433.89 243.1,591.74 162.07,158.23 366.46,237.37 613.6,237.37 271.47,0 498.38,-106.1 681.12,-318.31l153.07 115.97c-96.79,122.77 -217.42,218.09 -361.93,285.08 -144.52,67 -306.15,100.76 -484.42,100.76 -339.41,0 -607.27,-112.9 -803.1,-338.62 -164.36,-190.2 -246.71,-420.39 -246.71,-689.73 0,-283.29 99.47,-522.07 298.46,-715.43 199.43,-193.8 448.86,-290.48 748.68,-290.48 180.94,0 344.37,35.56 490.25,106.59 145.82,71.51 265.57,171.3 358.77,299.47z"/>
  </g>
 </g>
</svg>
