<?xml version="1.0" encoding="utf-8"?>
<!-- Generator: Adobe Illustrator 21.0.0, SVG Export Plug-In . SVG Version: 6.00 Build 0)  -->
<!DOCTYPE svg PUBLIC "-//W3C//DTD SVG 1.1//EN" "http://www.w3.org/Graphics/SVG/1.1/DTD/svg11.dtd">
<svg version="1.1" id="Слой_1" xmlns="http://www.w3.org/2000/svg" xmlns:xlink="http://www.w3.org/1999/xlink" x="0px" y="0px"
	 viewBox="0 0 161.6 161.6" style="enable-background:new 0 0 161.6 161.6;" xml:space="preserve">
<style type="text/css">
	.st0{fill:#FFFFFF;}
	.st1{fill:#E8F8FF;}
	.st2{fill:#00CCFF;}
	.st3{fill:none;stroke:#00CCFF;stroke-width:6;stroke-linecap:round;stroke-linejoin:round;stroke-miterlimit:10;}
</style>
<g>
	<circle class="st0" cx="81.4" cy="80.6" r="77.3"/>
	<path class="st1" d="M115.6,110.8c0.5-0.5,0.9-1,1.3-1.5c0.1-0.1,0.1-0.1,0.2-0.2c0.4-0.5,0.8-1,1.2-1.5c0.1-0.1,0.1-0.2,0.2-0.3
		c0.4-0.5,0.7-1,1.1-1.5c0.1-0.1,0.1-0.2,0.2-0.3c0.3-0.5,0.7-1,1-1.5c0.1-0.1,0.2-0.3,0.2-0.4c0.3-0.5,0.6-1,0.9-1.5
		c0.1-0.2,0.2-0.3,0.2-0.5c0.3-0.5,0.5-1,0.8-1.5c0.1-0.2,0.2-0.4,0.2-0.5c0.2-0.5,0.5-1,0.7-1.5c0.1-0.2,0.2-0.4,0.2-0.6
		c0.2-0.5,0.4-1,0.6-1.5c0.1-0.2,0.1-0.4,0.2-0.7c0.2-0.5,0.3-1,0.5-1.5c0.1-0.2,0.1-0.5,0.2-0.7c0.1-0.5,0.3-1,0.4-1.5
		c0.1-0.2,0.1-0.5,0.2-0.7c0.1-0.5,0.2-1,0.3-1.5c0.1-0.3,0.1-0.5,0.1-0.8c0.1-0.5,0.2-1,0.3-1.5c0-0.3,0.1-0.5,0.1-0.8
		c0.1-0.5,0.1-1,0.2-1.5c0-0.3,0-0.6,0.1-0.8c0-0.5,0.1-1,0.1-1.5c0-0.3,0-0.6,0-0.9c0-0.4,0-0.8,0-1.2l0,0c0-0.2,0-0.3,0-0.5
		c0-8.1-2.1-15.6-5.7-22.2L81.4,79.9L41.2,57.7c-3.6,6.6-5.7,14.2-5.7,22.2c0,0.2,0,0.3,0,0.5l0,0c0,0.4,0,0.8,0,1.2
		c0,0.3,0,0.6,0,0.9c0,0.5,0.1,1,0.1,1.5c0,0.3,0,0.6,0.1,0.8c0.1,0.5,0.1,1,0.2,1.5c0,0.3,0.1,0.5,0.1,0.8c0.1,0.5,0.2,1,0.3,1.5
		c0,0.3,0.1,0.5,0.1,0.8c0.1,0.5,0.2,1,0.3,1.5c0.1,0.2,0.1,0.5,0.2,0.7c0.1,0.5,0.3,1,0.4,1.5c0.1,0.2,0.1,0.5,0.2,0.7
		c0.2,0.5,0.3,1,0.5,1.5c0.1,0.2,0.1,0.4,0.2,0.7c0.2,0.5,0.4,1,0.6,1.5c0.1,0.2,0.2,0.4,0.2,0.6c0.2,0.5,0.4,1,0.7,1.5
		c0.1,0.2,0.2,0.4,0.2,0.5c0.2,0.5,0.5,1,0.8,1.5c0.1,0.2,0.2,0.3,0.2,0.5c0.3,0.5,0.6,1,0.9,1.5c0.1,0.1,0.2,0.3,0.2,0.4
		c0.3,0.5,0.6,1,1,1.5c0.1,0.1,0.1,0.2,0.2,0.3c0.4,0.5,0.7,1,1.1,1.5c0.1,0.1,0.1,0.2,0.2,0.3c0.4,0.5,0.8,1,1.2,1.5
		c0.1,0.1,0.1,0.1,0.2,0.2c0.4,0.5,0.9,1,1.3,1.5c0,0,0.1,0.1,0.1,0.1c0.5,0.5,1,1,1.5,1.5c0,0,0,0,0.1,0.1
		c8.3,8.3,19.8,13.5,32.5,13.5c0,0,0,0,0,0c0,0,0,0,0,0c12.7,0,24.2-5.1,32.5-13.5c0,0,0,0,0.1-0.1c0.5-0.5,1-1,1.5-1.5
		C115.5,110.8,115.5,110.8,115.6,110.8z"/>
	<circle class="st2" cx="81.4" cy="80" r="4.5"/>
	<g>
		<g>
			<circle class="st2" cx="81.4" cy="18.8" r="4.5"/>
			<circle class="st2" cx="135" cy="111.5" r="4.5"/>
			<circle class="st2" cx="135" cy="49.6" r="4.5"/>
			<circle class="st2" cx="143.3" cy="80.6" r="4.5"/>
			<circle class="st2" cx="112.3" cy="27" r="4.5"/>
			<circle class="st2" cx="112.4" cy="134.1" r="4.5"/>
			<circle class="st2" cx="50.5" cy="27" r="4.5"/>
			<circle class="st2" cx="27.9" cy="49.6" r="4.5"/>
			<circle class="st2" cx="27.9" cy="111.5" r="4.5"/>
			<circle class="st2" cx="50.5" cy="134.1" r="4.5"/>
			<circle class="st2" cx="19.6" cy="80.6" r="4.5"/>
			<circle class="st2" cx="81.4" cy="142.5" r="4.5"/>
		</g>
	</g>
	<line class="st3" x1="41.2" y1="57.7" x2="81.4" y2="80"/>
</g>
</svg>
