<svg xmlns="http://www.w3.org/2000/svg" viewBox="0 0 74.86 51.16"><title>Бризер-3S. Пыль</title><path d="M19.32,51.16a5,5,0,0,1-5-4.4h0A5,5,0,1,1,20,51.12,5.07,5.07,0,0,1,19.32,51.16Zm0-8.67-.47,0a3.63,3.63,0,0,0-3.15,4.06h0a3.63,3.63,0,1,0,3.61-4.09Z" fill="#0cf"/><path d="M9.7,34.87a1.43,1.43,0,1,0,1.24-1.6,1.43,1.43,0,0,0-1.24,1.6" fill="#0cf"/><path d="M0,18.83a2.29,2.29,0,1,0,2-2.56,2.29,2.29,0,0,0-2,2.56" fill="#0cf"/><path d="M11.67,25.16a5,5,0,0,1-5-4.4h0a5,5,0,1,1,5,4.4Zm-3.6-4.57a3.64,3.64,0,1,0,3.15-4.06,3.64,3.64,0,0,0-3.15,4.06Z" fill="#0cf"/><path d="M39.33,31.62a1.24,1.24,0,1,1,.44,0,1.24,1.24,0,0,1-.44,0" fill="#0cf"/><path d="M52.54,30.36a3.76,3.76,0,1,1,1.32.07,3.76,3.76,0,0,1-1.32-.07" fill="#0cf"/><path d="M43.84,27.79a1.94,1.94,0,1,1,.68,0,1.94,1.94,0,0,1-.68,0" fill="#0cf"/><path d="M30.13,27.69a2.44,2.44,0,1,1,2.73,2.11,2.44,2.44,0,0,1-2.73-2.11" fill="#0cf"/><path d="M61.59,21.73a2.44,2.44,0,1,1,2.73,2.11,2.44,2.44,0,0,1-2.73-2.11" fill="#0cf"/><path d="M58.47,21.44a1.24,1.24,0,1,1,.44,0,1.24,1.24,0,0,1-.44,0" fill="#0cf"/><path d="M48.61,18.25a1.24,1.24,0,1,1,.44,0,1.24,1.24,0,0,1-.44,0" fill="#0cf"/><path d="M44.11,46.95a11.11,11.11,0,0,1-9.53-5.4,13.43,13.43,0,0,1-13.82-8.63,13.26,13.26,0,0,1,.12-9.58A9.9,9.9,0,0,1,30.94,7.5,14.87,14.87,0,0,1,55,5a17.55,17.55,0,1,1-.58,34.71,11,11,0,0,1-10.32,7.2ZM35,40.1a.7.7,0,0,1,.62.37A9.65,9.65,0,0,0,53.3,38.74a.7.7,0,0,1,.81-.48,16.15,16.15,0,1,0,.74-31.79.7.7,0,0,1-.64-.24A13.48,13.48,0,0,0,31.9,8.64a.7.7,0,0,1-.83.35,8.5,8.5,0,0,0-8.87,13.76.7.7,0,0,1,.12.74,11.88,11.88,0,0,0-.26,8.94,12,12,0,0,0,12.8,7.68Z" fill="#0cf"/></svg>