<svg xmlns="http://www.w3.org/2000/svg" viewBox="0 0 58.55 55.61"><title>Скрытое подключение</title><path d="M29,44.71a9.82,9.82,0,0,1-9.81-9.81V32.19H17.91a.7.7,0,0,1-.7-.7V24.65a.7.7,0,0,1,.7-.7H40.15a.7.7,0,0,1,.7.7v6.84a.7.7,0,0,1-.7.7H38.84V34.9A9.82,9.82,0,0,1,29,44.71ZM18.61,30.79h1.31a.7.7,0,0,1,.7.7V34.9a8.41,8.41,0,0,0,16.83,0V31.49a.7.7,0,0,1,.7-.7h1.31V25.35H18.61Z" fill="#0cf"/><path d="M25.3,25.35h-3a.7.7,0,0,1-.7-.7v-9a2.19,2.19,0,1,1,4.38,0v9A.7.7,0,0,1,25.3,25.35ZM23,23.95h1.59v-8.3a.79.79,0,0,0-1.59,0Z" fill="#0cf"/><path d="M35.74,25.35h-3a.7.7,0,0,1-.7-.7v-9a2.19,2.19,0,1,1,4.38,0v9A.7.7,0,0,1,35.74,25.35Zm-2.29-1.4H35v-8.3a.79.79,0,0,0-1.59,0Z" fill="#0cf"/><path d="M16.55,55.61a.8.8,0,0,1-.36-.08A29.43,29.43,0,0,1,13.51,54a.8.8,0,0,1,.86-1.35,27.67,27.67,0,0,0,2.54,1.44.8.8,0,0,1-.36,1.51Z" fill="#0cf"/><path d="M38.36,54h0a10.37,10.37,0,0,1-5.56-1.52.8.8,0,0,1,.85-1.35,8.78,8.78,0,0,0,4.71,1.27l.62,0a.78.78,0,0,1,.84.75.8.8,0,0,1-.75.84Zm6.47-1.59a.8.8,0,0,1-.35-1.52,20.29,20.29,0,0,0,4.79-3.28.8.8,0,1,1,1.08,1.18,21.9,21.9,0,0,1-5.17,3.54A.79.79,0,0,1,44.83,52.42ZM9.21,50.36a.8.8,0,0,1-.56-.23,29.44,29.44,0,0,1-3.93-4.81.8.8,0,1,1,1.34-.87A27.84,27.84,0,0,0,9.77,49a.8.8,0,0,1-.56,1.37Zm44.53-5.94a.8.8,0,0,1-.67-1.24,20.56,20.56,0,0,0,2-3.77q.29-.74.54-1.49a.8.8,0,1,1,1.52.5q-.26.8-.57,1.58a22.14,22.14,0,0,1-2.12,4.06A.8.8,0,0,1,53.74,44.41ZM2.63,40.29a.8.8,0,0,1-.75-.51,29.17,29.17,0,0,1-1.59-6,.8.8,0,1,1,1.58-.24,27.56,27.56,0,0,0,1.51,5.68.8.8,0,0,1-.75,1.09ZM57.6,33h-.08a.8.8,0,0,1-.71-.88,28.12,28.12,0,0,0,0-5.88.8.8,0,1,1,1.59-.17,29.81,29.81,0,0,1,0,6.21A.8.8,0,0,1,57.6,33ZM.8,28.41h0A.8.8,0,0,1,0,27.57a29.3,29.3,0,0,1,1-6.13.8.8,0,0,1,1.54.43,27.65,27.65,0,0,0-1,5.79A.8.8,0,0,1,.8,28.41ZM56.3,21.1a.8.8,0,0,1-.76-.55,27.62,27.62,0,0,0-2.44-5.35.8.8,0,1,1,1.38-.81A29.2,29.2,0,0,1,57.06,20a.8.8,0,0,1-.76,1.05ZM4,16.83a.8.8,0,0,1-.71-1.17A29.35,29.35,0,0,1,6.77,10.5a.8.8,0,0,1,1.23,1,27.79,27.79,0,0,0-3.27,4.88A.8.8,0,0,1,4,16.83Zm46.17-6.08a.8.8,0,0,1-.59-.26,27.92,27.92,0,0,0-4.42-3.87.8.8,0,0,1,.92-1.31,29.55,29.55,0,0,1,4.67,4.09.8.8,0,0,1-.59,1.34ZM11.73,7.61a.8.8,0,0,1-.49-1.43A29.35,29.35,0,0,1,16.51,2.9a.8.8,0,0,1,.7,1.44,27.74,27.74,0,0,0-5,3.1A.8.8,0,0,1,11.73,7.61ZM40.35,3.83A.79.79,0,0,1,40,3.77a27.54,27.54,0,0,0-5.62-1.7A.8.8,0,1,1,34.71.5a29.13,29.13,0,0,1,6,1.8.8.8,0,0,1-.31,1.53ZM22.55,2.38A.8.8,0,0,1,22.36.81,29.41,29.41,0,0,1,28.52,0a.81.81,0,0,1,.82.78.8.8,0,0,1-.78.82,27.82,27.82,0,0,0-5.82.76Z" fill="#0cf"/><path d="M29.66,47.78a.8.8,0,0,1-.77-.58A11.45,11.45,0,0,1,28.45,44,.8.8,0,1,1,30,44a9.86,9.86,0,0,0,.37,2.74.8.8,0,0,1-.77,1Z" fill="#0cf"/></svg>