<svg xmlns="http://www.w3.org/2000/svg" viewBox="0 0 58.16 51.45"><title>Бризер-3S. Рециркуляция</title><path d="M29.43,51.45a25.12,25.12,0,0,1-25-23.53.7.7,0,0,1,1.4-.09A23.7,23.7,0,0,0,52.44,32a.7.7,0,1,1,1.36.33A25,25,0,0,1,29.43,51.45Z" fill="#0cf"/><polygon points="0 33.08 1.12 33.92 5.25 28.4 10.45 32.93 11.37 31.87 5.04 26.36 0 33.08" fill="#0cf"/><path d="M53.07,24.28a.7.7,0,0,1-.7-.66,23.7,23.7,0,0,0-46.66-4.2.7.7,0,1,1-1.36-.33,25.1,25.1,0,0,1,49.41,4.45.7.7,0,0,1-.65.74Z" fill="#0cf"/><polygon points="58.16 18.38 57.04 17.54 52.91 23.05 47.71 18.52 46.79 19.58 53.12 25.09 58.16 18.38" fill="#0cf"/></svg>