<svg xmlns="http://www.w3.org/2000/svg" viewBox="0 0 54.48 65.43"><title>Управление со смартфона</title><path d="M35.39,65.43a.7.7,0,0,1-.32-.08,9.56,9.56,0,0,1-4.38-4.15l-4.42-9.06c-1.48-3-.84-5.62,1.77-7.1a.7.7,0,0,1,.69,1.22c-2,1.11-2.36,2.88-1.2,5.27l4.42,9.06a8.1,8.1,0,0,0,3.77,3.52.7.7,0,0,1-.32,1.32Z" fill="#0cf"/><path d="M31.19,51.3a.7.7,0,0,1-.61-.36c-1.67-3-4.27-7.51-6.52-11.45-2.38-4.16-4.26-7.45-4.48-7.88-1.25-2.41-.29-4.32,1.21-5.13a3.58,3.58,0,0,1,4.88,1.26L36.6,47.09l-1.22.69L24.46,28.42a2.2,2.2,0,0,0-3-.72c-1.14.62-1.38,1.84-.64,3.26.21.4,2.18,3.85,4.45,7.83s4.85,8.49,6.53,11.46a.7.7,0,0,1-.61,1Z" fill="#0cf"/><path d="M39.81,45.77a.7.7,0,0,1-.61-.36L34,36.13A2.2,2.2,0,0,0,32.62,35a1.67,1.67,0,0,0-1.29.16A.7.7,0,1,1,30.6,34,3.07,3.07,0,0,1,33,33.7a3.58,3.58,0,0,1,2.21,1.75l5.24,9.28a.7.7,0,0,1-.61,1Z" fill="#0cf"/><path d="M44.17,43.69a.7.7,0,0,1-.61-.36L39.42,36a2.2,2.2,0,0,0-1.34-1.09,1.67,1.67,0,0,0-1.29.16.7.7,0,0,1-.73-1.19,3.07,3.07,0,0,1,2.37-.32,3.58,3.58,0,0,1,2.21,1.75l4.14,7.33a.7.7,0,0,1-.61,1Z" fill="#0cf"/><path d="M53.78,57h0a.7.7,0,0,1-.68-.72c.1-4.06-1.17-10.79-7.74-19.78-.21-.28-.33-.46-.37-.53a2.19,2.19,0,0,0-1.34-1.08,1.67,1.67,0,0,0-1.29.16.7.7,0,1,1-.73-1.19A3.08,3.08,0,0,1,44,33.51a3.58,3.58,0,0,1,2.21,1.75l.28.4c6.8,9.31,8.11,16.36,8,20.63A.7.7,0,0,1,53.78,57Z" fill="#0cf"/><path d="M15.46,4.6h4.42a1,1,0,0,1,0,2H15.46a1,1,0,0,1,0-2Z" fill="#0cf"/><path d="M24.93,62.22H5.35A5.56,5.56,0,0,1,0,56.49V5.59A5.48,5.48,0,0,1,5.35,0H29.88a5.54,5.54,0,0,1,5.47,5.59V27.91a.7.7,0,1,1-1.4,0V5.59a4.14,4.14,0,0,0-4.07-4.2H5.35a4.08,4.08,0,0,0-4,4.2V56.49a4.16,4.16,0,0,0,4,4.34H24.93a.7.7,0,0,1,0,1.4Z" fill="#0cf"/><path d="M17.67,58.65a2.14,2.14,0,1,1,2.14-2.14A2.14,2.14,0,0,1,17.67,58.65Z" fill="#0cf"/></svg>