<svg xmlns="http://www.w3.org/2000/svg" viewBox="0 0 48.03 44.29"><title>Бризер-3S. Ветер</title><path d="M31.34,44.29a.7.7,0,0,1,0-1.4,7.66,7.66,0,0,0,6.08-3.28,7.56,7.56,0,0,0,.73-7.51,7.45,7.45,0,0,0-7.29-4.67q-10.27,0-20.55,0H1.85a2.9,2.9,0,0,0-.35,0A.7.7,0,1,1,1.35,26a4.33,4.33,0,0,1,.53,0h8.41q10.28,0,20.56,0a8.85,8.85,0,0,1,8.56,5.5,8.94,8.94,0,0,1-.86,8.89,9,9,0,0,1-7.18,3.88Z" fill="#0cf"/><path d="M27.54,21.26H7.94a.7.7,0,0,1,0-1.4H20.85c5.48,0,11,0,16.44,0A9.31,9.31,0,0,0,39.05,1.38.7.7,0,1,1,39.33,0a10.71,10.71,0,0,1-2,21.23Z" fill="#0cf"/><path d="M13.53,34.2H.7a.7.7,0,0,1,0-1.4H26.36a.7.7,0,0,1,0,1.4Z" fill="#0cf"/><path d="M13.27,15.4H.7A.7.7,0,0,1,.7,14H2.42c5.48,0,18.32,0,21.37,0a7.14,7.14,0,0,0,2-.26,5,5,0,0,0,3.49-5V8.6a4.08,4.08,0,0,0-8.16,0,.7.7,0,1,1-1.4,0,5.48,5.48,0,0,1,11-.15v.22a6.4,6.4,0,0,1-4.48,6.38,8.49,8.49,0,0,1-2.38.31C22.19,15.4,17.83,15.4,13.27,15.4Z" fill="#0cf"/></svg>