<svg xmlns="http://www.w3.org/2000/svg" viewBox="0 0 51.23 61.07"><title>Бризер-3S. Тишина</title><path d="M50.53,39a.7.7,0,0,1-.49-.2L34.6,23.31a.7.7,0,0,1,1-1L51,37.76A.7.7,0,0,1,50.53,39Z" fill="#0cf"/><path d="M35.09,39a.7.7,0,0,1-.49-1.19L50,22.32a.7.7,0,0,1,1,1L35.59,38.75A.7.7,0,0,1,35.09,39Z" fill="#0cf"/><path d="M41.05,61.07a2.44,2.44,0,0,1-1.45-.48L16.1,43.51H2.45A2.46,2.46,0,0,1,0,41.06V20a2.46,2.46,0,0,1,2.45-2.45H16.1L39.6.46A2.46,2.46,0,0,1,40.75,0H41a2.37,2.37,0,0,1,1.76.72,2.44,2.44,0,0,1,.72,1.74V16.28a.7.7,0,1,1-1.4,0V2.46A1.06,1.06,0,0,0,41.06,1.4L40.84.7l.09.69a1.06,1.06,0,0,0-.5.2L16.74,18.81a.7.7,0,0,1-.41.13H2.45A1.06,1.06,0,0,0,1.4,20V41.06a1.06,1.06,0,0,0,1.06,1.06H16.33a.7.7,0,0,1,.41.13L40.43,59.46a1.06,1.06,0,0,0,1.69-.85V44.79a.7.7,0,1,1,1.4,0V58.6a2.45,2.45,0,0,1-2.46,2.47Z" fill="#0cf"/></svg>