<svg xmlns="http://www.w3.org/2000/svg" viewBox="0 0 51.51 51.51"><title>Бризер-3S. Вентиляция</title><path d="M26.18,51.51a11.25,11.25,0,0,1-8.56-3.59c-2.37-2.65-3.34-6.57-2.81-11.32a35.93,35.93,0,0,1,.68-4.07l-.21.23c-1.91,2.07-4,4.39-7.94,4C2.68,36.39-.22,30.66,0,25.58.25,20.3,3.63,14.67,12.4,14.67a22.26,22.26,0,0,1,2.5.15,36.07,36.07,0,0,1,4.07.68l-.26-.24c-1.95-1.79-4.36-4-4-7.91C15.12,2.75,20.43,0,25.32,0a11.25,11.25,0,0,1,8.56,3.59c2.37,2.65,3.34,6.57,2.81,11.31A36.33,36.33,0,0,1,36,19l.22-.24c1.91-2.08,4-4.38,7.93-4,4.67.42,7.56,6.14,7.33,11.23-.24,5.27-3.62,10.91-12.39,10.91a22.3,22.3,0,0,1-2.5-.15A36.23,36.23,0,0,1,32.53,36l.26.24c1.95,1.79,4.36,4,4,7.91C36.39,48.76,31.08,51.51,26.18,51.51Zm-9.29-22a.7.7,0,0,1,.66.94,28.41,28.41,0,0,0-1.35,6.33c-.49,4.34.36,7.88,2.46,10.23a9.88,9.88,0,0,0,7.52,3.12c4.27,0,8.89-2.27,9.23-6.07.29-3.21-1.67-5-3.56-6.76a20.78,20.78,0,0,1-2.2-2.23.7.7,0,0,1,.78-1.1,28.49,28.49,0,0,0,6.33,1.35,20.91,20.91,0,0,0,2.35.14c7.79,0,10.79-4.95,11-9.57.2-4.44-2.19-9.42-6.06-9.77-3.21-.29-4.92,1.57-6.73,3.53a21,21,0,0,1-2.26,2.23.7.7,0,0,1-1.1-.78,28.62,28.62,0,0,0,1.35-6.33c.49-4.34-.37-7.88-2.46-10.23A9.87,9.87,0,0,0,25.32,1.4c-4.27,0-8.89,2.27-9.23,6.07-.29,3.22,1.67,5,3.57,6.76a20.42,20.42,0,0,1,2.2,2.23.7.7,0,0,1-.78,1.09,28.49,28.49,0,0,0-6.33-1.35,20.87,20.87,0,0,0-2.34-.14c-7.79,0-10.79,4.95-11,9.57-.2,4.44,2.19,9.43,6.06,9.77,3.22.28,4.94-1.59,6.75-3.56a20.68,20.68,0,0,1,2.24-2.2A.7.7,0,0,1,16.89,29.49Z" fill="#0cf"/><path d="M25.75,30.53a4.78,4.78,0,1,1,4.78-4.78A4.78,4.78,0,0,1,25.75,30.53Zm0-8.16a3.38,3.38,0,1,0,3.38,3.38A3.38,3.38,0,0,0,25.75,22.38Z" fill="#0cf"/></svg>