<svg xmlns="http://www.w3.org/2000/svg" viewBox="0 0 74.05 41.53"><title>Клевер. Доставка</title><path d="M52,34.37H37a.5.5,0,0,1,0-1H52a.5.5,0,1,1,0,1Z" fill="#0cf"/><path d="M72.09,34.37H66.72a.5.5,0,0,1,0-1h5.37a1,1,0,0,0,1-1V20.24a1,1,0,0,0-1-1H70A2,2,0,0,1,68,17.68L66,6.85A1,1,0,0,0,65,6.06H51.6a.5.5,0,0,1-.5-.5V2a1,1,0,0,0-1-1h-33a1,1,0,0,0-1,1V32.41a1,1,0,0,0,1,1h5.24a.5.5,0,1,1,0,1H17.12a2,2,0,0,1-2-2V2a2,2,0,0,1,2-2h33a2,2,0,0,1,2,2v3.1H65A2,2,0,0,1,67,6.66l2,10.83a1,1,0,0,0,.94.78h2.13a2,2,0,0,1,2,2V32.41A2,2,0,0,1,72.09,34.37Z" fill="#0cf"/><path d="M46,33.87" fill="none" stroke="#0cf" stroke-linecap="round" stroke-linejoin="round"/><path d="M51.6,20.22a.5.5,0,0,1-.5-.5V3.48a.5.5,0,0,1,1,0V19.72A.5.5,0,0,1,51.6,20.22Z" fill="#0cf"/><path d="M29.52,41.53a7.66,7.66,0,1,1,7.66-7.66A7.67,7.67,0,0,1,29.52,41.53Zm0-14.32a6.66,6.66,0,1,0,6.66,6.66A6.67,6.67,0,0,0,29.52,27.21Z" fill="#0cf"/><path d="M59.19,41.53a7.66,7.66,0,1,1,7.66-7.66A7.67,7.67,0,0,1,59.19,41.53Zm0-14.32a6.66,6.66,0,1,0,6.66,6.66A6.67,6.67,0,0,0,59.19,27.21Z" fill="#0cf"/><path d="M10.44,10.66H.5a.5.5,0,1,1,0-1h9.94a.5.5,0,1,1,0,1Z" fill="#0cf"/><path d="M10.44,25.39H.5a.5.5,0,0,1,0-1h9.94a.5.5,0,1,1,0,1Z" fill="#0cf"/><path d="M10.44,18H4.52a.5.5,0,0,1,0-1h5.92a.5.5,0,0,1,0,1Z" fill="#0cf"/></svg>