<svg xmlns="http://www.w3.org/2000/svg" viewBox="0 0 57.02 54.62"><title>Клевер. Гаратия</title><path d="M26.13,33.16a.5.5,0,0,1-.35-.14l-5.26-5a.5.5,0,1,1,.69-.72l4.9,4.69,9.68-10.33a.5.5,0,0,1,.73.68L26.5,33a.5.5,0,0,1-.35.16Z" fill="#0cf"/><path d="M36,54.62a13.1,13.1,0,0,1-3.62-.75,13.94,13.94,0,0,0-3.9-.79,14,14,0,0,0-3.9.79,13.14,13.14,0,0,1-3.62.75,4.11,4.11,0,0,1-1.29-.19c-1.55-.5-2.62-1.93-3.76-3.43a13.47,13.47,0,0,0-2.58-2.83,13.57,13.57,0,0,0-3.51-1.6c-1.79-.62-3.46-1.2-4.41-2.5s-1-3-1-4.91A13.81,13.81,0,0,0,4,35.28,13.23,13.23,0,0,0,2.13,32C1,30.46,0,29,0,27.31s1-3.14,2.12-4.7A13.25,13.25,0,0,0,4,19.35a13.82,13.82,0,0,0,.44-3.88c0-1.87.08-3.63,1-4.91S8.06,8.67,9.83,8.06a13.53,13.53,0,0,0,3.53-1.6,13.4,13.4,0,0,0,2.57-2.82C17.07,2.12,18.14.7,19.7.19A4.13,4.13,0,0,1,21,0a13.11,13.11,0,0,1,3.62.75,14,14,0,0,0,3.9.79A14,14,0,0,0,32.39.75,13.15,13.15,0,0,1,36,0a4.13,4.13,0,0,1,1.29.19c1.55.5,2.63,1.93,3.76,3.44a13.45,13.45,0,0,0,2.58,2.83,13.55,13.55,0,0,0,3.53,1.6c1.77.61,3.44,1.19,4.39,2.5s1,3,1,4.91A13.82,13.82,0,0,0,53,19.35a13.22,13.22,0,0,0,1.86,3.26c1.1,1.56,2.13,3,2.13,4.71S56,30.46,54.9,32A13.27,13.27,0,0,0,53,35.28a13.81,13.81,0,0,0-.44,3.88c0,1.87-.08,3.63-1,4.91S49,46,47.18,46.56a13.59,13.59,0,0,0-3.53,1.6A13.45,13.45,0,0,0,41.09,51c-1.14,1.52-2.22,2.94-3.77,3.44A4.13,4.13,0,0,1,36,54.62Zm-7.52-2.54a14.69,14.69,0,0,1,4.19.83c1.64.5,3.22.92,4.32.56,1.25-.41,2.23-1.71,3.27-3.08a14.16,14.16,0,0,1,2.79-3,14.31,14.31,0,0,1,3.79-1.74c1.62-.56,3.15-1.09,3.91-2.14s.78-2.64.82-4.34A14.59,14.59,0,0,1,52.08,35a14,14,0,0,1,2-3.52c1-1.43,2-2.78,2-4.14s-.94-2.7-1.94-4.13a13.94,13.94,0,0,1-2-3.53,14.57,14.57,0,0,1-.49-4.17c0-1.71-.07-3.31-.82-4.34S48.48,9.56,46.86,9a14.27,14.27,0,0,1-3.79-1.74,14.17,14.17,0,0,1-2.78-3c-1-1.38-2-2.69-3.28-3.09-1.09-.36-2.67.07-4.31.56a14.76,14.76,0,0,1-4.19.83,14.74,14.74,0,0,1-4.18-.83C22.67,1.21,21.1.79,20,1.14c-1.25.41-2.23,1.71-3.27,3.09a14.11,14.11,0,0,1-2.78,3A14.24,14.24,0,0,1,10.16,9C8.54,9.57,7,10.1,6.25,11.14s-.78,2.63-.82,4.34a14.59,14.59,0,0,1-.49,4.18,13.93,13.93,0,0,1-2,3.53C1.94,24.61,1,26,1,27.31s.94,2.7,1.94,4.13a14,14,0,0,1,2,3.53,14.57,14.57,0,0,1,.49,4.17c0,1.71.07,3.31.82,4.34s2.29,1.58,3.91,2.14a14.33,14.33,0,0,1,3.79,1.74,14.18,14.18,0,0,1,2.79,3c1,1.38,2,2.68,3.27,3.09,1.08.35,2.66-.07,4.31-.56A14.75,14.75,0,0,1,28.51,52.08Z" fill="#0cf"/><path d="M28.51,49.16A21.85,21.85,0,1,1,50.36,27.31,21.87,21.87,0,0,1,28.51,49.16Zm0-42.69A20.85,20.85,0,1,0,49.36,27.31,20.87,20.87,0,0,0,28.51,6.47Z" fill="#0cf"/></svg>