<?xml version="1.0" encoding="utf-8"?>
<!-- Generator: Adobe Illustrator 21.1.0, SVG Export Plug-In . SVG Version: 6.00 Build 0)  -->
<!DOCTYPE svg PUBLIC "-//W3C//DTD SVG 1.1//EN" "http://www.w3.org/Graphics/SVG/1.1/DTD/svg11.dtd">
<svg version="1.1" id="Слой_1" xmlns="http://www.w3.org/2000/svg" xmlns:xlink="http://www.w3.org/1999/xlink" x="0px" y="0px"
	 viewBox="0 0 80.4 80.4" style="enable-background:new 0 0 80.4 80.4;" xml:space="preserve">
<g>
	<g>
		<path style="fill:#E4E8EA;" d="M23.7,12c-5.4,8.2-7.2,24.4-0.7,32.2c1.6,2.1-0.2,4.4-2.9,2.6c-8.9-8.6-9.8-21.3-7.4-29.7
			C14.5,10.5,21,8.7,23.7,12L23.7,12z"/>
	</g>
	<g>
		<path style="fill:#E4E8EA;" d="M5.2,55.5c-6.3-7.5-4.3-15.1,0.7-16c4.7,10.7,17,18.8,30.5,13.6c2.1-0.8,3.8,1.1,2.2,2.9
			C32.3,63,13.3,65,5.2,55.5L5.2,55.5z"/>
	</g>
	<g>
		<path style="fill:#E4E8EA;" d="M50.7,3c10.4-1.9,16.5,5,13.2,10.3C51.2,11.7,36.2,15.8,28,25.7c-1.4,1.7-4.2,0.3-3.2-2.1
			C29,13,38.2,5.3,50.7,3L50.7,3z"/>
	</g>
	<g>
		<path style="fill:#E4E8EA;" d="M78.8,39.9c2.1,10.4-6.1,15.9-13.3,13.7C65.1,39.1,55.2,26.9,44,24c-1.8-0.5-2-2.8,0-3.3
			C58.6,17,75.3,23,78.8,39.9L78.8,39.9z"/>
	</g>
	<g>
		<path style="fill:#E4E8EA;" d="M25,69.7C40.2,67,50.8,51.9,51.1,39c0-2.1,2.9-3,3.8-0.9c6.2,13.4,1.7,32.6-10.9,37.8
			C32.2,80.7,25.2,74.9,25,69.7L25,69.7z"/>
	</g>
	<g>
		<path style="fill:#E4E8EA;" d="M62.4,69.3c0-4.6,3.7-8.4,8.4-8.4c4.6,0,8.4,3.7,8.4,8.4s-3.7,8.4-8.4,8.4
			C66.2,77.6,62.4,73.9,62.4,69.3L62.4,69.3z"/>
	</g>
</g>
</svg>
