<svg xmlns="http://www.w3.org/2000/svg" viewBox="0 0 53.6 51.6"><title>Бризер-3S. МА значек</title><path d="M14.5,31.33a2.88,2.88,0,0,1-1.59-.55l-.1-.08C6.45,24.56,6.07,15.77,7.68,10.12a6.55,6.55,0,0,1,4.76-4.9,3.84,3.84,0,0,1,3.85,1.24.7.7,0,0,1,0,.83c-3.58,5.41-4.61,15.87-.54,20.74a2.11,2.11,0,0,1,.07,2.76A1.84,1.84,0,0,1,14.5,31.33Zm-.77-1.68c.54.34.94.33,1.1.16s.17-.52-.14-.93C10.31,23.66,11.19,13,14.85,7a2.56,2.56,0,0,0-2.13-.41A5.17,5.17,0,0,0,9,10.5C7.53,15.77,7.87,23.94,13.73,29.66Z" fill="#0cf"/><path d="M14.43,41.09H14C9.23,41,5.25,39.37,2.81,36.49S-.58,30.24.37,27.6a4.4,4.4,0,0,1,3.35-3,.7.7,0,0,1,.77.41c3,6.75,10.84,12.12,19.57,8.76a2.13,2.13,0,0,1,2.56.65,1.94,1.94,0,0,1-.32,2.44C23.93,39.46,19.31,41.09,14.43,41.09Zm-11-15a3.13,3.13,0,0,0-1.77,1.94c-.6,1.67-.33,4.52,2.2,7.51h0c2.18,2.57,5.79,4,10.17,4.11,4.58.08,9.08-1.43,11.2-3.76.12-.13.37-.46.2-.71a.75.75,0,0,0-.9-.14C15.25,38.66,6.86,33.21,3.45,26.13Z" fill="#0cf"/><path d="M17.6,17.25a2,2,0,0,1-1-.28,2,2,0,0,1-.78-2.6c3-7.45,9.5-12.61,17.88-14.15,4-.74,7.75.41,9.45,2.93a4.45,4.45,0,0,1,.1,5,.7.7,0,0,1-.68.32c-7.53-1-17.69,1.13-23.42,8A2,2,0,0,1,17.6,17.25ZM36.14,1.39a12.15,12.15,0,0,0-2.19.21h0C26,3,19.9,7.89,17.11,14.88c-.22.56.06.8.19.88a.58.58,0,0,0,.77-.16C24,8.45,34.41,6.16,42.27,7A3.06,3.06,0,0,0,42,3.93C41.13,2.66,39.15,1.39,36.14,1.39ZM33.82.91h0Z" fill="#0cf"/><path d="M45.94,35.77a7.86,7.86,0,0,1-2.38-.37.7.7,0,0,1-.49-.65C42.85,26,36.75,17.57,29.2,15.65a1.89,1.89,0,0,1-1.49-1.81,1.84,1.84,0,0,1,1.49-1.78,21.37,21.37,0,0,1,16.55,2.21,16.82,16.82,0,0,1,7.61,11.17c.7,3.39-.14,6.44-2.3,8.39A7.63,7.63,0,0,1,45.94,35.77ZM44.46,34.2a6.31,6.31,0,0,0,5.66-1.4c1.81-1.63,2.47-4.14,1.86-7.07h0a15.45,15.45,0,0,0-7-10.27,20.24,20.24,0,0,0-15.46-2c-.28.07-.43.22-.43.42s.11.37.44.45C37.65,16.36,44,24.86,44.46,34.2Z" fill="#0cf"/><path d="M23.79,51.6a9.06,9.06,0,0,1-5-1.38,5.84,5.84,0,0,1-2.83-4.61.7.7,0,0,1,.57-.71C26.43,43.12,33.24,33.16,33.39,25a2.11,2.11,0,0,1,1.67-2,1.94,1.94,0,0,1,2.22,1.14,22.86,22.86,0,0,1,.41,17.38A14.91,14.91,0,0,1,23.79,51.6Zm-6.37-5.44a4.69,4.69,0,0,0,2.13,2.89c2.33,1.52,5.8,1.52,9.51,0A13.86,13.86,0,0,0,36.38,41,21.42,21.42,0,0,0,36,24.67a.56.56,0,0,0-.66-.36.71.71,0,0,0-.56.7C34.63,33.56,27.65,43.94,17.41,46.16Z" fill="#0cf"/><path d="M47.29,51.59a6.3,6.3,0,1,1,6.3-6.3A6.31,6.31,0,0,1,47.29,51.59Zm0-11.21a4.9,4.9,0,1,0,4.9,4.9A4.91,4.91,0,0,0,47.29,40.38Z" fill="#0cf"/></svg>