<svg xmlns="http://www.w3.org/2000/svg" viewBox="0 0 51.37 51.58"><title>Клевер. Монетка</title><path d="M41.19,35.48" fill="none" stroke="#0cf" stroke-linecap="round" stroke-linejoin="round"/><path d="M26.32,16.52" fill="none" stroke="#0cf" stroke-linecap="round" stroke-linejoin="round"/><path d="M29.7,13.85" fill="none" stroke="#0cf" stroke-linecap="round" stroke-linejoin="round"/><path d="M36.09,35.87a12.39,12.39,0,0,1-2.86-.34l-.12,0L16.17,26.16,2.08,22.88A2.72,2.72,0,0,1,.32,21.55a3,3,0,0,1-.21-2.14l3-12.53a2.59,2.59,0,0,1,2.27-2L25.58.1a9.34,9.34,0,0,1,7.29,2.06L43.68,9.85c1.76,1.5,2.5,2.12,2.19,4.25l-2,10.44a.51.51,0,0,1-.58.4.5.5,0,0,1-.4-.58l2-10.42c.22-1.57-.13-1.87-1.86-3.34l-.23-.22L32.26,3a8.39,8.39,0,0,0-6.49-1.87L5.6,5.88a1.66,1.66,0,0,0-1.5,1.21l-3,12.57a2,2,0,0,0,.14,1.44,1.72,1.72,0,0,0,1.12.81L16.46,25.2l.13,0,16.95,9.32c1.77.43,4.85.58,5.82-.8a3.62,3.62,0,0,0,.14-4.44l-15.35-12a.5.5,0,0,1-.17-.53l.18-.62a5.26,5.26,0,0,1,3.53-3.52l.13-.11c.17-.14.4-.34.56-.5.69-.69,1.55-1.55,2.61-1.29a1.34,1.34,0,0,1,1.08,1c.84,2,3.26,2.63,4.87,3.08l.12,0c1.06.29,2,.55,2.14,1.67,0,0,0,.13,0,.14l-.79,6.39a.49.49,0,0,1-.56.43.5.5,0,0,1-.43-.56l.78-6.33c0-.37-.31-.49-1.36-.78l-.18,0c-1.68-.47-4.5-1.25-5.55-3.73,0-.14-.07-.26-.37-.33s-.9.26-1.66,1c-.18.18-.44.4-.62.56l-.18.16a.52.52,0,0,1-.22.13,4.28,4.28,0,0,0-3,2.88l-.08.28L40.16,28.59l.09.09a4.63,4.63,0,0,1-.08,5.67C39.35,35.52,37.69,35.87,36.09,35.87Z" fill="#0cf"/><path d="M36.92,51.58A14.46,14.46,0,0,1,24.15,30.34a.5.5,0,0,1,.88.47,13.44,13.44,0,1,0,8.42-6.69.5.5,0,1,1-.26-1,14.45,14.45,0,1,1,3.73,28.42Z" fill="#0cf"/></svg>