<svg xmlns="http://www.w3.org/2000/svg" viewBox="0 0 51.9 45.96"><title>Клевер. 28 дней</title><path d="M26.27,46A22.42,22.42,0,0,1,3.9,24.88a.5.5,0,0,1,1-.06,21.41,21.41,0,0,0,42.17,3.85.5.5,0,1,1,1,.24A22.36,22.36,0,0,1,26.27,46Z" fill="#0cf"/><polygon points="0 29.29 0.96 30.02 4.53 25.3 8.97 29.21 9.77 28.31 4.36 23.55 0 29.29" fill="#0cf"/><path d="M47.51,21.61a.5.5,0,0,1-.5-.47A21.41,21.41,0,0,0,4.84,17.28a.5.5,0,1,1-1-.24,22.41,22.41,0,0,1,44.13,4,.5.5,0,0,1-.47.53Z" fill="#0cf"/><polygon points="51.9 16.67 50.95 15.94 47.37 20.66 42.93 16.75 42.14 17.65 47.55 22.41 51.9 16.67" fill="#0cf"/></svg>