<svg xmlns="http://www.w3.org/2000/svg" viewBox="0 0 45.2 49"><title>Клевер. Подарок</title><path d="M43.94,25.09H1.26A1.26,1.26,0,0,1,0,23.83v-8a1.26,1.26,0,0,1,1.26-1.26H43.94a1.26,1.26,0,0,1,1.26,1.26v8A1.26,1.26,0,0,1,43.94,25.09ZM1.26,15.55a.26.26,0,0,0-.26.26v8a.26.26,0,0,0,.26.26H43.94a.26.26,0,0,0,.26-.26v-8a.26.26,0,0,0-.26-.26Z" fill="#0cf"/><path d="M40.33,49H4.87a1.26,1.26,0,0,1-1.26-1.26V24.59a.5.5,0,0,1,.5-.5h37a.5.5,0,0,1,.5.5V47.74A1.26,1.26,0,0,1,40.33,49ZM4.61,25.09V47.74a.26.26,0,0,0,.26.26H40.33a.26.26,0,0,0,.26-.26V25.09Z" fill="#0cf"/><path d="M22.6,15.55H12.2A4.65,4.65,0,0,1,7.55,10.9V4.65A4.65,4.65,0,0,1,12.2,0h6.26A4.65,4.65,0,0,1,23.1,4.65V15A.5.5,0,0,1,22.6,15.55ZM12.2,1A3.65,3.65,0,0,0,8.55,4.65V10.9a3.65,3.65,0,0,0,3.65,3.65h9.9V4.65A3.65,3.65,0,0,0,18.45,1Z" fill="#0cf"/><path d="M33,15.55H22.6a.5.5,0,0,1-.5-.5V4.65A4.65,4.65,0,0,1,26.75,0H33a4.65,4.65,0,0,1,4.65,4.65V10.9A4.65,4.65,0,0,1,33,15.55Zm-9.9-1H33a3.65,3.65,0,0,0,3.65-3.65V4.65A3.65,3.65,0,0,0,33,1H26.75A3.65,3.65,0,0,0,23.1,4.65Z" fill="#0cf"/><path d="M22.6,49a.5.5,0,0,1-.5-.5V15a.5.5,0,0,1,1,0V48.5A.5.5,0,0,1,22.6,49Z" fill="#0cf"/></svg>