<svg xmlns="http://www.w3.org/2000/svg" viewBox="0 0 32.1 51.58"><title>Клевер. Инстументы</title><path d="M21.41,51.58a4,4,0,0,1-4-4V16.69a2.27,2.27,0,0,0-.61-1.88h0A8.73,8.73,0,0,1,14.81,4.08,8.64,8.64,0,0,1,24,.19a.5.5,0,0,1,.33.74L21.11,6.63l1.6,2.83h3L29.1,3.69a.5.5,0,0,1,.39-.25.48.48,0,0,1,.43.17,8.61,8.61,0,0,1,1.14,9.83,8.65,8.65,0,0,1-4,3.5,2.69,2.69,0,0,0-1.65,2.77V47.54A4,4,0,0,1,21.41,51.58Zm-4-37.52a3.26,3.26,0,0,1,.95,2.61V47.54a3,3,0,1,0,6.08,0V19.72A3.7,3.7,0,0,1,26.68,16a7.65,7.65,0,0,0,3.5-3.09,7.53,7.53,0,0,0-.59-8.12l-3.12,5.39a.5.5,0,0,1-.43.25H22.42a.5.5,0,0,1-.44-.25L20.1,6.88a.5.5,0,0,1,0-.49l3-5.33a7.56,7.56,0,0,0-7.46,3.52A7.73,7.73,0,0,0,17.42,14.06Z" fill="#0cf"/><path d="M4.82,51.58A4.82,4.82,0,0,1,0,46.76V32.22a2,2,0,0,1,.58-1.41,1.9,1.9,0,0,1,.48-.35v-.29a1.9,1.9,0,0,1-.48-.35A2,2,0,0,1,0,28.42v-1.3a2.94,2.94,0,0,1,2.94-2.94h.93a.5.5,0,0,1,0,1H2.94A1.94,1.94,0,0,0,1,27.12v1.3a1,1,0,0,0,.71.94.5.5,0,0,1,.36.48v1a.5.5,0,0,1-.36.48,1,1,0,0,0-.42.24,1,1,0,0,0-.29.7V46.76a3.79,3.79,0,0,0,1.12,2.7,3.91,3.91,0,0,0,5.4,0,3.78,3.78,0,0,0,1.12-2.7V32.22a1,1,0,0,0-.71-.94.5.5,0,0,1-.36-.48v-1a.5.5,0,0,1,.36-.48,1,1,0,0,0,.71-.94v-1.3A1.94,1.94,0,0,0,6.7,25.18H5.78a.5.5,0,0,1,0-1H6.7a2.94,2.94,0,0,1,2.94,2.94v1.3a2,2,0,0,1-.58,1.4,1.9,1.9,0,0,1-.48.35v.29a1.91,1.91,0,0,1,.48.35,2,2,0,0,1,.58,1.4V46.76a4.82,4.82,0,0,1-4.82,4.82Z" fill="#0cf"/><path d="M3.87,10.32a.5.5,0,0,1-.44-.26L1.62,6.76a1.46,1.46,0,0,1-.18-.7V1.45A1.46,1.46,0,0,1,2.89,0H6.75A1.45,1.45,0,0,1,8.21,1.45V6.06a1.45,1.45,0,0,1-.18.7l-1.81,3.3a.5.5,0,0,1-.88-.48l1.81-3.3a.45.45,0,0,0,.06-.22V1.45A.45.45,0,0,0,6.75,1H2.89a.46.46,0,0,0-.46.45V6.06a.45.45,0,0,0,.06.22l1.81,3.3a.5.5,0,0,1-.2.68A.49.49,0,0,1,3.87,10.32Z" fill="#0cf"/><path d="M4.82,25.18a.5.5,0,0,1-.5-.5V9.82a.5.5,0,0,1,1,0V24.68A.5.5,0,0,1,4.82,25.18Z" fill="#0cf"/></svg>