<svg xmlns="http://www.w3.org/2000/svg" viewBox="0 0 26.84 51.68"><title>Бризер-3S. Подогрев</title><path d="M17.06,46.75a4.85,4.85,0,1,1,4.85-4.85A4.85,4.85,0,0,1,17.06,46.75Zm0-8.3a3.45,3.45,0,1,0,3.45,3.45A3.45,3.45,0,0,0,17.06,38.45Z" fill="#0cf"/><path d="M17.06,51.68a9.77,9.77,0,0,1-5.85-17.6V5.85a5.85,5.85,0,1,1,11.7,0V34.08a9.77,9.77,0,0,1-5.85,17.6Zm0-50.28a4.46,4.46,0,0,0-4.45,4.45V34.43a.7.7,0,0,1-.3.57,8.38,8.38,0,1,0,9.51,0,.7.7,0,0,1-.3-.57V5.85A4.46,4.46,0,0,0,17.06,1.4Z" fill="#0cf"/><path d="M17.06,38.45a.7.7,0,0,1-.7-.7V11.13a.7.7,0,1,1,1.4,0V37.75A.7.7,0,0,1,17.06,38.45Z" fill="#0cf"/><path d="M6.13,19.71H.7a.7.7,0,0,1,0-1.4H6.13a.7.7,0,0,1,0,1.4Z" fill="#0cf"/><path d="M6.13,30H.7a.7.7,0,0,1,0-1.4H6.13a.7.7,0,0,1,0,1.4Z" fill="#0cf"/><path d="M6.13,9.41H.7A.7.7,0,0,1,.7,8H6.13a.7.7,0,0,1,0,1.4Z" fill="#0cf"/><path d="M6.13,14.56H3a.7.7,0,0,1,0-1.4H6.13a.7.7,0,0,1,0,1.4Z" fill="#0cf"/><path d="M6.13,24.87H3a.7.7,0,0,1,0-1.4H6.13a.7.7,0,0,1,0,1.4Z" fill="#0cf"/></svg>