<?xml version="1.0" encoding="UTF-8"?>
<!DOCTYPE svg PUBLIC "-//W3C//DTD SVG 1.1//EN" "http://www.w3.org/Graphics/SVG/1.1/DTD/svg11.dtd">
<!-- Creator: CorelDRAW 2018 (64-Bit Оценочная версия) -->
<svg xmlns="http://www.w3.org/2000/svg" xml:space="preserve" width="30mm" height="30mm" version="1.1" style="shape-rendering:geometricPrecision; text-rendering:geometricPrecision; image-rendering:optimizeQuality; fill-rule:evenodd; clip-rule:evenodd"
viewBox="0 0 3000 3000"
 xmlns:xlink="http://www.w3.org/1999/xlink">
 <defs>
  <style type="text/css">
   <![CDATA[
    .fil1 {fill:#FEFEFE}
    .fil0 {fill:#B0CB1F}
   ]]>
  </style>
 </defs>
 <g id="Слой_x0020_1">
  <metadata id="CorelCorpID_0Corel-Layer"/>
  <ellipse class="fil0" cx="1497.01" cy="1491.44" rx="1459.18" ry="1457.45"/>
  <path class="fil1" d="M1735.15 635.39c60.48,-35.9 129.1,-54.21 198.01,-54.24 79.57,-7.02 147.42,9.03 197.33,51.27 3.1,2.62 6.15,5.37 9.11,8.17 15.19,9.6 29.93,20.35 44.07,32.31 163.3,138.2 183.52,382.44 45.18,545.52 -14.6,17.22 -30.39,32.79 -47.09,46.78 -124,-38.81 -295.97,-25.59 -398.33,60.1 -47.94,-15 -56.36,-24.19 -100.77,-61.78 -44.42,-37.59 -83.87,-90.71 -106.75,-145.14 -72.96,65.62 -145.26,139.83 -214.58,221.54 -68.58,80.84 -129.4,163.31 -181.82,245.09 57.67,13.56 113.46,40.93 161.33,81.45 47.88,40.52 67.31,57.18 90.2,110.75 -62.93,107.34 -53.44,269.04 -6.06,379.86 -11.18,19.06 -24.15,37.46 -38.95,54.9 -138.37,163.11 -382.9,183.31 -546.2,45.11 -9.99,-8.46 -19.45,-17.35 -28.41,-26.56 -7.85,-4.97 -15.39,-10.51 -22.54,-16.56 -56.08,-47.46 -83.24,-122.72 -84.36,-216.32 -5.12,-54.93 1.48,-110.87 20.02,-163.89 48.7,-207.94 184.39,-463.26 388.53,-703.92 200.93,-236.86 426.85,-410.73 622.08,-494.44z"/>
 </g>
</svg>
