<svg xmlns="http://www.w3.org/2000/svg" width="62" height="62"><circle data-name="Эллипс 2" cx="49.5" cy="12.5" r="12.5" fill="#00909b"/><path data-name="Иконка Инд подход" d="M60 12.516A10.511 10.511 0 0 0 41.746 5.4 29.288 29.288 0 0 0 29.6 2.8a29.6 29.6 0 1 0 29.6 29.6 29.289 29.289 0 0 0-2.6-12.146 10.49 10.49 0 0 0 3.4-7.738zM49.483 4.959a7.557 7.557 0 1 1-7.557 7.557 7.566 7.566 0 0 1 7.557-7.557zM29.6 59.04a26.64 26.64 0 0 1 0-53.28 26.362 26.362 0 0 1 10.444 2.125 10.513 10.513 0 0 0 14.072 14.071A26.369 26.369 0 0 1 56.24 32.4 26.67 26.67 0 0 1 29.6 59.04zm23.811-48h-2.448V8.589a1.48 1.48 0 1 0-2.96 0v2.448h-2.448a1.48 1.48 0 0 0 0 2.96H48v2.448a1.48 1.48 0 0 0 2.96 0V14h2.448a1.48 1.48 0 1 0 .003-2.963zM38.693 37.7a4.8 4.8 0 0 1-4.686-3.667 9.466 9.466 0 0 0 1.86-1.91 12.679 12.679 0 0 0 2.276-5.83 1.335 1.335 0 0 0 .21-.343 9.962 9.962 0 0 0 .774-3.878c0-5.2-3.939-9.434-8.78-9.434a8.175 8.175 0 0 0-3.59.832 6.527 6.527 0 0 0-1.229.229c-4.057 1.172-6.353 6.063-5.119 10.9a7.144 7.144 0 0 0 .667 1.753 11.594 11.594 0 0 0 4.124 7.664 4.747 4.747 0 0 1-4.692 3.684 6.525 6.525 0 0 0-6.308 6.51v4.257a2.9 2.9 0 0 0 2.9 2.9h25a2.9 2.9 0 0 0 2.9-2.9V44.21a6.525 6.525 0 0 0-6.307-6.51zM26.267 16.256a3.909 3.909 0 0 1 .909-.147 1.339 1.339 0 0 0 .559-.152 5.571 5.571 0 0 1 2.611-.657 6.408 6.408 0 0 1 6.091 6.184 4.287 4.287 0 0 0-2.291-.661H28.12a1.189 1.189 0 0 1-.717-.237 1.2 1.2 0 0 1-.4-.515 1.532 1.532 0 0 0-2.9.189 7.727 7.727 0 0 1-1.3 2.687c-.403-3.104 1.033-5.988 3.464-6.691zM23.7 25.909a10.474 10.474 0 0 0 2.271-3.071 3.833 3.833 0 0 0 2.144.648h6.028a1.652 1.652 0 0 1 1.466.894c-.022 3.494-1.506 6.5-3.616 7.813a4.568 4.568 0 0 1-2.392.713c-2.85.002-5.359-3.026-5.901-6.997zm9.833 12.429a6.681 6.681 0 0 1-7.87 0 7.365 7.365 0 0 0 1.942-3.061 6.831 6.831 0 0 0 2 .3 6.917 6.917 0 0 0 1.987-.294 7.369 7.369 0 0 0 1.945 3.055zm8.8 10.129a.236.236 0 0 1-.235.235h-25a.236.236 0 0 1-.235-.235V44.21a3.859 3.859 0 0 1 3.855-3.855 8.383 8.383 0 0 0 2.586-.514 9.348 9.348 0 0 0 12.6 0 7.125 7.125 0 0 0 2.578.512 3.859 3.859 0 0 1 3.854 3.855v4.257z" fill-rule="evenodd" opacity=".8"/></svg>