<svg xmlns="http://www.w3.org/2000/svg" width="50" height="63"><circle data-name="Эллипс 2" cx="25" cy="24" r="13" fill="#00909b"/><path data-name="Иконка качественно" d="M49.444 22.284l-4.838-4.952.975-6.82a1.955 1.955 0 0 0-1.612-2.2l-6.852-1.19-3.261-6.085A1.982 1.982 0 0 0 31.248.2L25 3.223 18.749.2a1.982 1.982 0 0 0-2.608.84l-3.26 6.087-6.853 1.187a1.955 1.955 0 0 0-1.612 2.2l.974 6.82-4.837 4.95a1.939 1.939 0 0 0 0 2.716l4.837 4.951-.974 6.825a1.955 1.955 0 0 0 1.612 2.2l5.484.952v21.119a1.949 1.949 0 0 0 .935 1.661 1.987 1.987 0 0 0 1.919.085L25 57.53l10.631 5.263a1.988 1.988 0 0 0 1.919-.085 1.95 1.95 0 0 0 .935-1.661V39.925l5.484-.952a1.956 1.956 0 0 0 1.612-2.2l-.975-6.824L49.444 25a1.939 1.939 0 0 0 0-2.716zM25.881 53.6a1.988 1.988 0 0 0-1.764 0l-8.661 4.287V44.97l.685 1.278a1.981 1.981 0 0 0 2.608.839L25 44.06l6.248 3.027a1.984 1.984 0 0 0 2.609-.839l.685-1.277v12.916zM41.1 27.921a1.942 1.942 0 0 0-.535 1.632l.842 5.9-5.92 1.027a1.971 1.971 0 0 0-1.4 1.008l-2.819 5.26-5.4-2.616a1.99 1.99 0 0 0-1.733 0l-5.4 2.616-2.818-5.26a1.969 1.969 0 0 0-1.4-1.008l-5.928-1.029.842-5.9a1.941 1.941 0 0 0-.531-1.63l-4.186-4.279 4.186-4.28a1.942 1.942 0 0 0 .53-1.632l-.841-5.894 5.923-1.028a1.972 1.972 0 0 0 1.4-1.008l2.818-5.262 5.4 2.614a1.988 1.988 0 0 0 1.732 0l5.4-2.614L34.085 9.8a1.972 1.972 0 0 0 1.4 1.008l5.922 1.028-.841 5.894a1.942 1.942 0 0 0 .535 1.632l4.181 4.28zM25 10.287a13.357 13.357 0 1 0 13.484 13.355A13.436 13.436 0 0 0 25 10.287zm0 22.806a9.451 9.451 0 1 1 9.541-9.451A9.508 9.508 0 0 1 25 33.094zm4.02-14.406l-5.825 5.768-2.217-2.193a1.985 1.985 0 0 0-2.789 0 1.939 1.939 0 0 0 0 2.762L21.8 28.6a1.985 1.985 0 0 0 2.788 0l7.219-7.148a1.94 1.94 0 0 0 0-2.762 1.985 1.985 0 0 0-2.788-.003z" fill-rule="evenodd" opacity=".8"/></svg>