<svg xmlns="http://www.w3.org/2000/svg" width="56" height="60"><circle data-name="Эллипс 2" cx="30" cy="33" r="13" fill="#00909b"/><path d="M29.621 37.988a3.527 3.527 0 0 0 2.587-1.459l9.3-12.944a1 1 0 0 0-.1-1.293.99.99 0 0 0-1.284-.1l-12.861 9.363a3.579 3.579 0 0 0-.42 5.4A3.516 3.516 0 0 0 29.342 38c.093 0 .185 0 .279-.012zM27.8 34.315a1.564 1.564 0 0 1 .633-1.142l7.841-5.713-5.674 7.894a1.546 1.546 0 0 1-2.354.187 1.571 1.571 0 0 1-.446-1.226zm24.061-14.751c-.01-.021-.01-.043-.021-.064s-.031-.031-.044-.05a27.169 27.169 0 0 0-3.54-4.809l2.133-2.146 1.4 1.414 4.212-4.243-4.207-4.243-4.213 4.242 1.4 1.415-2.133 2.147a26.983 26.983 0 0 0-4.77-3.567c-.019-.013-.03-.032-.05-.044s-.043-.011-.063-.022a26.486 26.486 0 0 0-10.2-3.4V5h1.489a2.5 2.5 0 0 0 0-5h-8.937a2.5 2.5 0 0 0 0 5h1.489v1.156a27.068 27.068 0 0 0-3.2.535 1 1 0 0 0 .444 1.949 24.946 24.946 0 0 1 2.76-.477l1.065-.083c.326-.025.626-.043.918-.057V10a.993.993 0 1 0 1.986 0V8.029a24.5 24.5 0 0 1 10.381 2.846l-.979 1.707a1 1 0 0 0 .363 1.366.979.979 0 0 0 .5.134.989.989 0 0 0 .861-.5l.976-1.7a25.1 25.1 0 0 1 7.717 7.772l-1.691.983A1 1 0 0 0 47.541 22a.989.989 0 0 0 1.356.366l1.695-.986A24.958 24.958 0 0 1 53.421 32H51.46a1 1 0 0 0 0 2h1.961a24.959 24.959 0 0 1-2.829 10.619l-1.692-.987a.988.988 0 0 0-1.359.368 1 1 0 0 0 .363 1.366l1.696.981a25.1 25.1 0 0 1-7.717 7.772l-.976-1.7a.988.988 0 0 0-1.356-.366 1 1 0 0 0-.363 1.366l.979 1.707a24.493 24.493 0 0 1-10.387 2.842V56a.993.993 0 1 0-1.986 0v1.976a24.91 24.91 0 0 1-4.742-.617.988.988 0 0 0-1.189.751 1 1 0 0 0 .746 1.2 26.647 26.647 0 0 0 6.015.69h.185a26.491 26.491 0 0 0 13.125-3.573.878.878 0 0 0 .093-.039c.02-.012.031-.031.05-.044a27.1 27.1 0 0 0 9.7-9.761.917.917 0 0 0 .059-.078c.012-.021.011-.043.021-.064a27.063 27.063 0 0 0 .004-26.877zm-.068-11.313l1.4 1.414-1.4 1.415-1.405-1.415zm-24-2.23V3h-3.476a.5.5 0 0 1 0-1h8.936a.5.5 0 0 1 0 1h-3.475v3.021A24.598 24.598 0 0 0 28.785 6h-.161c-.163 0-.326.011-.489.014-.115.003-.223.001-.342.007zM19.849 14h-4.964a1 1 0 0 0 0 2h4.965a1 1 0 0 0-.001-2zm0 7H9.92a1 1 0 0 0 0 2h9.929a1 1 0 0 0 0-2zm0 7H4.956a1 1 0 0 0 0 2h14.893a1 1 0 0 0 0-2zm0 7H.984a1 1 0 0 0 0 2h18.865a1 1 0 0 0 0-2zm0 7H6.942a1 1 0 0 0 0 2h12.907a1 1 0 0 0 0-2zm0 7H12.9a1 1 0 0 0 0 2h6.95a1 1 0 0 0-.001-2z" fill-rule="evenodd" opacity=".8"/></svg>