<svg xmlns="http://www.w3.org/2000/svg" width="62" height="63"><defs><style>.cls-2{fill-rule:evenodd}</style></defs><circle id="Эллипс_2" data-name="Эллипс 2" cx="14" cy="15" r="13" fill="#00909b"/><path id="Рубль" class="cls-2" d="M9.25 18.409H11v1.364a.21.21 0 0 0 .07.163.256.256 0 0 0 .18.064h1.3a.259.259 0 0 0 .176-.064.2.2 0 0 0 .074-.163v-1.364h3.95a.257.257 0 0 0 .18-.064.211.211 0 0 0 .07-.164v-.909a.211.211 0 0 0-.07-.164.259.259 0 0 0-.18-.064H12.8v-.837h2.656a3.726 3.726 0 0 0 2.551-.866A2.837 2.837 0 0 0 19 13.1a2.839 2.839 0 0 0-.988-2.238A3.728 3.728 0 0 0 15.461 10H11.25a.258.258 0 0 0-.18.064.212.212 0 0 0-.07.164v4.467H9.25a.249.249 0 0 0-.18.068.214.214 0 0 0-.07.16v1.058a.211.211 0 0 0 .07.164.257.257 0 0 0 .18.064H11v.838H9.25a.259.259 0 0 0-.18.064.212.212 0 0 0-.07.164v.909a.211.211 0 0 0 .07.164.257.257 0 0 0 .18.061zm3.555-6.9h2.5a1.968 1.968 0 0 1 1.336.44 1.557 1.557 0 0 1 0 2.3 1.964 1.964 0 0 1-1.336.441H12.8v-3.178z"/><path id="Иконка_копилка" data-name="Иконка копилка" class="cls-2" d="M57.681 26.4h-.969A25 25 0 0 0 49.5 16.344v-.013a6.767 6.767 0 0 1 1.07-5.5 3.219 3.219 0 0 0-3.109-4.908 13.233 13.233 0 0 0-8.945 4.639 31.5 31.5 0 0 0-4.663-.925 1.54 1.54 0 0 0-.357 3.058 28 28 0 0 1 5.16 1.118 1.528 1.528 0 0 0 1.733-.6 10.018 10.018 0 0 1 7.467-4.227A.143.143 0 0 1 48 9.2a9.813 9.813 0 0 0-1.414 7.979v.039a1.525 1.525 0 0 0 .573 1.156A21.719 21.719 0 0 1 54.2 28.422a1.536 1.536 0 0 0 1.453 1.067h2.051a1.261 1.261 0 0 1 1.261 1.272V37.7a1.262 1.262 0 0 1-1.261 1.272h-1.935a1.53 1.53 0 0 0-1.469 1.092 21.37 21.37 0 0 1-6.282 9.65l-.018.025-.013.013c-.115.1-.229.193-.344.3a.068.068 0 0 1-.038.026 10.757 10.757 0 0 0-3.618 7.491v2.313H34.8v-2.176a1.519 1.519 0 0 0-.51-1.144 1.5 1.5 0 0 0-1.185-.385 30.508 30.508 0 0 1-3.058.167 30.069 30.069 0 0 1-3.886-.257 1.5 1.5 0 0 0-1.21.373 1.558 1.558 0 0 0-.522 1.156v2.274h-9.19v-.745a14.672 14.672 0 0 0-3.9-9.354A23.065 23.065 0 0 1 7.173 43.4a.183.183 0 0 0-.026-.051A19.916 19.916 0 0 1 5.53 39c0-.013-.013-.025-.013-.038v-.029a19.233 19.233 0 0 1-.535-4.51 18.833 18.833 0 0 1 .268-3.174 1.531 1.531 0 1 0-3.02-.5 22.278 22.278 0 0 0-.306 3.688 22.9 22.9 0 0 0 .6 5.178.236.236 0 0 0 .026.09.189.189 0 0 1 .013.077 23.345 23.345 0 0 0 1.848 4.973 25.8 25.8 0 0 0 4.74 7.208 11.547 11.547 0 0 1 3.032 7.311v.784a.783.783 0 0 0 .013.18 3.048 3.048 0 0 0 3.02 2.75h9.225a3.058 3.058 0 0 0 3.045-3.071v-.58a33.366 33.366 0 0 0 4.243.064v.527A3.058 3.058 0 0 0 34.771 63H44a3.058 3.058 0 0 0 3.045-3.071v-2.275a7.7 7.7 0 0 1 2.6-5.255l.344-.308.026-.026c.026-.026.064-.052.089-.077a24.679 24.679 0 0 0 6.753-9.92h.828A4.341 4.341 0 0 0 62 37.712v-6.939a4.344 4.344 0 0 0-4.319-4.373zm-42.71 3.8a15.1 15.1 0 0 0 0-30.2 15.1 15.1 0 0 0 0 30.2zm0-27.112A12.014 12.014 0 1 1 3.058 15.1 11.97 11.97 0 0 1 14.971 3.084z"/></svg>