<svg xmlns="http://www.w3.org/2000/svg" width="18" height="18"><path data-name="Телефонная трубка" d="M14.233 11.15a1.773 1.773 0 0 0-1.286-.589 1.835 1.835 0 0 0-1.3.585l-1.2 1.2c-.1-.053-.2-.1-.293-.152a5.365 5.365 0 0 1-.377-.2A13.061 13.061 0 0 1 6.643 9.14a7.691 7.691 0 0 1-1.027-1.618c.312-.285.6-.581.883-.866.107-.106.213-.217.32-.323a1.741 1.741 0 0 0 0-2.629l-1.04-1.037a17.241 17.241 0 0 1-.354-.361A15.398 15.398 0 0 0 4.71 1.6a1.8 1.8 0 0 0-1.275-.559 1.865 1.865 0 0 0-1.293.559l-.008.008L.841 2.91a2.778 2.778 0 0 0-.826 1.767A6.651 6.651 0 0 0 .5 7.5a16.352 16.352 0 0 0 2.911 4.848A17.9 17.9 0 0 0 9.375 17a9.3 9.3 0 0 0 3.348.988c.08 0 .164.008.24.008a2.869 2.869 0 0 0 2.2-.942c0-.008.011-.012.015-.019a8.668 8.668 0 0 1 .666-.688c.164-.156.331-.319.495-.49a1.894 1.894 0 0 0 .574-1.315 1.824 1.824 0 0 0-.586-1.3zm1.362 4c-.148.16-.3.3-.464.464a9.941 9.941 0 0 0-.734.76 1.836 1.836 0 0 1-1.43.6h-.175a8.261 8.261 0 0 1-2.968-.889 16.9 16.9 0 0 1-5.616-4.392 15.42 15.42 0 0 1-2.739-4.555 5.417 5.417 0 0 1-.427-2.378 1.742 1.742 0 0 1 .525-1.128l1.3-1.3a.865.865 0 0 1 .578-.27.814.814 0 0 1 .555.271l.01.011c.232.217.453.441.685.68.118.122.24.243.362.368L6.1 4.43a.724.724 0 0 1 0 1.178c-.11.11-.217.22-.327.327-.32.327-.624.631-.955.927a.09.09 0 0 0-.019.019.774.774 0 0 0-.2.862l.008.034a8.322 8.322 0 0 0 1.229 2 13.956 13.956 0 0 0 3.379 3.069 5.19 5.19 0 0 0 .468.255c.137.069.266.133.377.2.015.008.03.019.046.027a.827.827 0 0 0 .377.095.814.814 0 0 0 .578-.262l1.3-1.3a.861.861 0 0 1 .575-.285.775.775 0 0 1 .548.277l.016.015 2.1 2.093a.75.75 0 0 1 0 1.19zM9.728 4.282a4.893 4.893 0 0 1 3.987 3.981.51.51 0 0 0 .506.425.662.662 0 0 0 .087-.008.513.513 0 0 0 .422-.593 5.916 5.916 0 0 0-4.823-4.816.516.516 0 0 0-.593.418.507.507 0 0 0 .414.593zm8.264 3.658A9.742 9.742 0 0 0 10.048.008a.512.512 0 1 0-.167 1.01 8.7 8.7 0 0 1 7.1 7.089.51.51 0 0 0 .506.425.665.665 0 0 0 .088-.008.5.5 0 0 0 .417-.584z" fill-rule="evenodd" opacity=".7"/></svg>