<svg xmlns="http://www.w3.org/2000/svg" width="19" height="19"><path data-name="Текст писать" d="M18.323 17.652H.677a.671.671 0 0 0-.661.674.682.682 0 0 0 .661.674h17.662a.671.671 0 0 0 .661-.674.685.685 0 0 0-.677-.674zM.016 11.686L0 14.891a.7.7 0 0 0 .194.493.64.64 0 0 0 .468.2l3.129-.016a.64.64 0 0 0 .468-.2L15.064 4.355a.7.7 0 0 0 0-.97L11.968.2a.672.672 0 0 0-.952 0L8.855 2.415.21 11.209a.739.739 0 0 0-.194.477zM11.5 1.643l2.178 2.219-1.226 1.249-2.178-2.219zM1.355 11.982l7.968-8.12L11.5 6.081l-7.968 8.1-2.193.019z" fill-rule="evenodd" opacity=".5"/></svg>