<?xml version="1.0" encoding="UTF-8"?>
<!DOCTYPE svg PUBLIC "-//W3C//DTD SVG 1.1//EN" "http://www.w3.org/Graphics/SVG/1.1/DTD/svg11.dtd">
<!-- Creator: CorelDRAW 2018 (64-Bit Оценочная версия) -->
<svg fill="#fff" xmlns="http://www.w3.org/2000/svg" xml:space="preserve" width="30mm" height="30mm" version="1.1" style="shape-rendering:geometricPrecision; text-rendering:geometricPrecision; image-rendering:optimizeQuality;"
viewBox="0 0 3000 3000"
 xmlns:xlink="http://www.w3.org/1999/xlink">
 <defs>
  <style type="text/css">

  </style>
 </defs>
 <g id="Слой_x0020_1">
  <metadata id="CorelCorpID_0Corel-Layer"/>
  <path class="fil0" d="M2200.38 376.74c105.96,-28.98 216.85,-28.11 320.59,0.4 122.72,22.41 218.18,74.69 275.77,158.95 3.58,5.24 7.03,10.64 10.32,16.08 18.88,20.75 36.61,43.03 52.92,66.9 188.43,275.71 117.41,651.76 -158.58,839.92 -29.14,19.87 -59.37,36.77 -90.32,50.92 -170.55,-109.82 -434.91,-161.18 -624.61,-74.6 -65.92,-42.45 -74.78,-59.78 -126.03,-134.77 -51.25,-74.99 -88.57,-171.29 -100.39,-262.72 -137.1,68.55 -276.76,150.3 -415.06,244.58 -136.81,93.28 -262.62,192.22 -375.5,293.61 81.17,44.31 153.79,108.62 209.03,189.46 55.24,80.83 77.57,113.97 89.77,204.09 -139.32,135.51 -192.2,382.87 -166.91,569.32 -24.74,24.07 -51.91,46.38 -81.44,66.51 -276.04,188.2 -652.53,117.27 -840.96,-158.45 -11.53,-16.87 -22.06,-34.17 -31.73,-51.75 -9.75,-10.72 -18.8,-22.19 -27.05,-34.26 -64.71,-94.69 -74.34,-219.24 -37.15,-360.6 15.11,-84.82 48.28,-166.29 98.22,-238.42 159.69,-292.83 470,-620.97 877.28,-898.64 400.86,-273.3 813.16,-441.42 1141.83,-486.53z"/>
 </g>
</svg>
