<?xml version="1.0" standalone="no"?>
<!DOCTYPE svg PUBLIC "-//W3C//DTD SVG 1.1//EN" "http://www.w3.org/Graphics/SVG/1.1/DTD/svg11.dtd" >
<svg xmlns="http://www.w3.org/2000/svg" xmlns:xlink="http://www.w3.org/1999/xlink" version="1.1">
<metadata>
Created by FontForge 20170910 at Fri Nov 14 20:32:22 1997
 By Jimmy Wärting
a_FuturicaNord *Arsenal Company (c)1996* FAX: (095)924-3775; e-Mail: arsenal@itco.msk.su; Phone: (095)924-5811 (Design and Featuring W.Chufarofsky &#38; M.Slutsker)
</metadata>
<defs>
<font id="AFuturicaNord" horiz-adv-x="1726" >
  <font-face 
    font-family="a_FuturicaNord"
    font-weight="1100"
    font-stretch="normal"
    units-per-em="2048"
    panose-1="2 11 11 2 2 2 4 2 3 4"
    ascent="1638"
    descent="-410"
    x-height="1249"
    cap-height="1544"
    bbox="-80 -553 2949 2160"
    underline-thickness="240"
    underline-position="-480"
    unicode-range="U+0020-2219"
  />
<missing-glyph horiz-adv-x="1024" 
d="M128 0v2160h768v-2160h-768zM256 128h512v1904h-512v-1904z" />
    <glyph glyph-name=".notdef" horiz-adv-x="1024" 
d="M128 0v2160h768v-2160h-768zM256 128h512v1904h-512v-1904z" />
    <glyph glyph-name=".null" horiz-adv-x="0" 
 />
    <glyph glyph-name="nonmarkingreturn" horiz-adv-x="862" 
 />
    <glyph glyph-name="space" unicode=" " horiz-adv-x="862" 
 />
    <glyph glyph-name="exclam" unicode="!" horiz-adv-x="913" 
d="M791 1544l-93 -926h-483l-92 926h668zM752 242q0 -111 -85.5 -189t-209.5 -78t-209.5 78t-85.5 189q0 112 85 188t210 76q123 0 209 -76t86 -188z" />
    <glyph glyph-name="quotedbl" unicode="&#x22;" horiz-adv-x="768" 
d="M754 1544l-103 -577h-164l-102 577h369zM381 1544l-102 -577h-162l-103 577h367z" />
    <glyph glyph-name="numbersign" unicode="#" 
d="M1675 1130l-102 -276h-258l-78 -219h266l-102 -277h-262l-133 -374h-297l135 374h-234l-133 -374h-297l135 374h-264l103 277h260l75 219h-264l101 276h264l131 375h297l-133 -375h233l131 375h297l-133 -375h262zM1026 854h-244l-82 -219h246z" />
    <glyph glyph-name="dollar" unicode="$" 
d="M1581 479q0 -222 -166.5 -351.5t-480.5 -152.5v-178h-135v178q-332 0 -652 131l80 449q241 -174 430 -174q142 0 142 74q0 40 -84 89q-31 17 -164 79q-189 88 -268 175q-95 107 -95 275q0 212 163.5 345t447.5 151v192h135v-192q323 0 592 -119l-76 -373
q-186 137 -453 137q-110 0 -110 -79q0 -48 92 -101q56 -33 207 -96q206 -86 291 -174q104 -108 104 -285z" />
    <glyph glyph-name="percent" unicode="%" horiz-adv-x="2048" 
d="M1997 434q0 -189 -120.5 -324t-289.5 -135q-167 0 -287 134.5t-120 324.5q0 192 118 323.5t289 131.5q172 0 291 -132t119 -323zM1550 1569l-815 -1594h-239l804 1594h250zM866 1114q0 -189 -120 -324t-289 -135q-167 0 -287.5 134.5t-120.5 324.5q0 192 118.5 323.5
t289.5 131.5q172 0 290.5 -132t118.5 -323zM1688 434q0 148 -101 148q-96 0 -96 -148q0 -151 96 -151q101 0 101 151zM557 1114q0 148 -100 148q-97 0 -97 -148q0 -151 97 -151q100 0 100 151z" />
    <glyph glyph-name="ampersand" unicode="&#x26;" horiz-adv-x="1954" 
d="M1901 0h-693l-149 156q-262 -181 -531 -181q-201 0 -319.5 102.5t-118.5 276.5q0 265 365 439q-144 184 -144 344q0 192 165 317q152 115 355 115q188 0 319 -88q146 -99 146 -269q0 -199 -215 -372l140 -140q136 139 258 308h354q-173 -293 -408 -516zM1061 1126
q0 123 -103 123q-42 0 -76 -32.5t-34 -71.5q0 -84 100 -166q113 61 113 147zM854 365l-154 159q-98 -63 -98 -131q0 -98 100 -98q79 0 152 70z" />
    <glyph glyph-name="quotesingle" unicode="'" horiz-adv-x="512" 
d="M444 1544l-102 -577h-172l-102 577h376z" />
    <glyph glyph-name="parenleft" unicode="(" horiz-adv-x="1024" 
d="M1042 -340h-464q-268 217 -391.5 446t-123.5 508q0 282 124 512.5t391 440.5h464q-215 -252 -307 -489q-82 -213 -82 -464q0 -250 82 -462q91 -236 307 -492z" />
    <glyph glyph-name="parenright" unicode=")" horiz-adv-x="1024" 
d="M961 614q0 -279 -123.5 -508t-391.5 -446h-464q216 256 307 492q82 212 82 462q0 251 -82 464q-92 237 -307 489h464q267 -210 391 -440.5t124 -512.5z" />
    <glyph glyph-name="asterisk" unicode="*" horiz-adv-x="1143" 
d="M1065 1008l-170 -295l-244 245l90 -331h-340l91 331l-244 -245l-170 295l332 90l-332 90l170 295l244 -248l-91 334h340l-90 -332l244 246l170 -295l-332 -90z" />
    <glyph glyph-name="plus" unicode="+" 
d="M1477 487h-471v-487h-287v487h-469v279h469v483h287v-483h471v-279z" />
    <glyph glyph-name="comma" unicode="," horiz-adv-x="852" 
d="M756 319l-592 -667h-29v803h621v-136z" />
    <glyph glyph-name="hyphen" unicode="-" horiz-adv-x="1024" 
d="M918 414h-812v430h812v-430z" />
    <glyph glyph-name="hyphen" unicode="&#x2010;" horiz-adv-x="1024" 
d="M918 414h-812v430h812v-430z" />
    <glyph glyph-name="period" unicode="." horiz-adv-x="852" 
d="M721 244q0 -111 -85.5 -189t-209.5 -78t-209.5 78t-85.5 189q0 112 85 188t210 76q123 0 209 -76t86 -188z" />
    <glyph glyph-name="slash" unicode="/" horiz-adv-x="719" 
d="M750 1544l-570 -1671h-260l561 1671h269z" />
    <glyph glyph-name="zero" unicode="0" 
d="M1642 772q0 -357 -221 -579q-217 -218 -557 -218q-338 0 -557 218q-223 223 -223 579q0 354 223 577q220 220 557 220q339 0 558.5 -221t219.5 -576zM1016 772q0 116 -44 197.5t-108 81.5t-108.5 -81.5t-44.5 -197.5q0 -118 44 -199t109 -81q63 0 107.5 81t44.5 199z" />
    <glyph glyph-name="one" unicode="1" 
d="M1556 0h-1353v430h342v684h-189v430h871v-1114h329v-430z" />
    <glyph glyph-name="two" unicode="2" 
d="M1602 0h-1547q475 452 609.5 615t134.5 288q0 111 -105 111q-157 0 -305 -176l-317 374q341 357 774 357q708 0 708 -572q0 -146 -116 -312q-110 -158 -283 -279h447v-406z" />
    <glyph glyph-name="three" unicode="3" 
d="M1632 401q0 -231 -242 -338q-197 -88 -536 -88q-397 0 -578 115q-190 121 -190 397h641q0 -165 133 -165t133 149q0 154 -133 154h-149v286h149q133 0 133 146q0 151 -133 151q-129 0 -129 -159h-584q0 240 197 380q193 138 516 138q339 0 527 -112q192 -114 192 -325
q0 -139 -62 -220q-67 -89 -227 -136q342 -93 342 -373z" />
    <glyph glyph-name="four" unicode="4" 
d="M1630 266h-241v-266h-705v266h-610v406l610 872h705v-872h241v-406zM694 672v481l-317 -481h317z" />
    <glyph glyph-name="five" unicode="5" 
d="M1599 543q0 -277 -225 -431q-198 -137 -493 -137q-181 0 -422 58q-257 62 -361 141l37 356q166 -116 354 -116q283 0 283 176q0 105 -107 141q-123 41 -505 41l82 772h1278v-405h-668l-12 -103q384 0 580 -139q179 -127 179 -354z" />
    <glyph glyph-name="six" unicode="6" 
d="M1663 651q0 -322 -250 -508q-226 -168 -563 -168q-342 0 -556 179q-231 193 -231 538q0 484 611 852h942v-16q-224 -71 -504 -324q253 -26 402 -175.5t149 -377.5zM1006 670q0 88 -42.5 136t-109.5 48t-109 -47q-45 -50 -45 -137q0 -197 154 -197q152 0 152 197z" />
    <glyph glyph-name="seven" unicode="7" 
d="M1708 1544l-698 -1544h-828l627 1139h-703v405h1602z" />
    <glyph glyph-name="eight" unicode="8" 
d="M1636 401q0 -259 -242 -357q-172 -69 -536 -69q-363 0 -545 82q-223 102 -223 344q0 282 342 373q-321 96 -321 363q0 430 753 430q752 0 752 -437q0 -261 -322 -356q342 -93 342 -373zM993 1057q0 57 -38.5 104t-90.5 47t-90.5 -47.5t-38.5 -103.5q0 -54 38.5 -100
t90.5 -46t90.5 46t38.5 100zM997 471q0 57 -39.5 105.5t-93.5 48.5q-52 0 -92.5 -49t-40.5 -105q0 -57 39.5 -103t93.5 -46t93.5 45.5t39.5 103.5z" />
    <glyph glyph-name="nine" unicode="9" 
d="M1663 852q0 -485 -610 -852h-942v16q223 71 503 324q-253 26 -402 175.5t-149 377.5q0 323 250 508q226 168 564 168q337 0 555 -187q231 -198 231 -530zM1026 874q0 197 -154 197q-151 0 -151 -197q0 -88 42 -136t109 -48t110.5 48.5t43.5 135.5z" />
    <glyph glyph-name="colon" unicode=":" horiz-adv-x="852" 
d="M721 1008q0 -111 -85.5 -188t-209.5 -77t-209.5 77t-85.5 188q0 112 85.5 189t209.5 77q123 0 209 -77t86 -189zM721 244q0 -111 -85.5 -189t-209.5 -78t-209.5 78t-85.5 189q0 112 85 188t210 76q123 0 209 -76t86 -188z" />
    <glyph glyph-name="semicolon" unicode=";" horiz-adv-x="852" 
d="M721 1008q0 -111 -85.5 -188t-209.5 -77t-209.5 77t-85.5 188q0 112 85.5 189t209.5 77q123 0 209 -77t86 -189zM752 319l-592 -667h-29v803h621v-136z" />
    <glyph glyph-name="less" unicode="&#x3c;" 
d="M1456 -16l-1206 499v287l1206 500v-309l-821 -336l821 -334v-307z" />
    <glyph glyph-name="equal" unicode="=" 
d="M1438 729h-1149v279h1149v-279zM1438 246h-1149v278h1149v-278z" />
    <glyph glyph-name="greater" unicode="&#x3e;" 
d="M1477 483l-1207 -499v307l820 334l-820 336v309l1207 -500v-287z" />
    <glyph glyph-name="question" unicode="?" horiz-adv-x="1024" 
d="M967 1126q0 -152 -102 -276q-68 -83 -310 -279h-227q68 81 107 187q34 90 34 160q0 110 -283 110l-147 434q171 65 252 84q96 23 227 23q196 0 322.5 -124.5t126.5 -318.5zM776 231q0 -106 -85.5 -181t-209.5 -75t-209.5 75t-85.5 181q0 107 85 180.5t210 73.5
q123 0 209 -73.5t86 -180.5z" />
    <glyph glyph-name="at" unicode="@" horiz-adv-x="2097" 
d="M2025 782q0 -358 -270 -569q-150 -117 -336 -117q-221 0 -239 158q-115 -156 -295 -156q-353 0 -353 359q0 239 138 409q146 181 374 181q157 0 226 -113l51 82h248l-154 -617q-10 -40 -10 -55q0 -49 49 -49q149 0 251 168q89 148 89 315q0 256 -196 404
q-180 135 -455 135q-295 0 -504 -146q-328 -230 -328 -632q0 -313 219 -491q204 -167 533 -167q332 0 600 191l119 -164q-334 -246 -742 -246q-396 0 -663 215q-305 245 -305 655q0 368 223 631q319 377 844 377q373 0 620 -195q266 -210 266 -563zM1200 705
q-13 147 -135 147q-115 0 -187 -145q-59 -121 -59 -256q0 -156 121 -156q74 0 132 57.5t81 153.5z" />
    <glyph glyph-name="A" unicode="A" horiz-adv-x="2028" 
d="M2052 0h-704l-80 266h-508l-80 -266h-705l545 1544h987zM1161 627l-147 497l-148 -497h295z" />
    <glyph glyph-name="B" unicode="B" horiz-adv-x="1782" 
d="M1726 449q0 -449 -710 -449h-893v1544h932q270 0 430 -105q164 -109 164 -298q0 -105 -51 -172q-49 -63 -162 -115q290 -84 290 -405zM995 1059q0 69 -51 112t-143 43h-21v-319h21q194 0 194 164zM1016 524q0 156 -215 156h-21v-320h21q215 0 215 164z" />
    <glyph glyph-name="C" unicode="C" horiz-adv-x="1395" 
d="M1290 33q-189 -58 -381 -58q-381 0 -608 201q-240 213 -240 596q0 401 242 609q219 188 594 188q188 0 393 -60v-536q-137 61 -254 61q-100 0 -161 -78q-56 -71 -56 -168q0 -100 56 -175q62 -85 161 -85q141 0 254 60v-555z" />
    <glyph glyph-name="D" unicode="D" horiz-adv-x="1735" 
d="M1673 772q0 -340 -229 -556t-596 -216h-725v1544h694q368 0 608 -209q248 -215 248 -563zM1026 791q0 219 -221 219h-21v-457h21q221 0 221 238z" />
    <glyph glyph-name="E" unicode="E" horiz-adv-x="1450" 
d="M1352 0h-1229v1544h1229v-385h-553v-184h489v-383h-489v-191h553v-401z" />
    <glyph glyph-name="F" unicode="F" horiz-adv-x="1321" 
d="M1260 1159h-449v-184h397v-383h-397v-592h-688v1544h1137v-385z" />
    <glyph glyph-name="G" unicode="G" horiz-adv-x="1700" 
d="M1593 0h-657q-881 0 -881 768q0 353 259 578q253 221 638 221q198 0 300 -20q127 -26 288 -109l-131 -492q-174 86 -391 86q-140 0 -225 -75q-80 -69 -80 -171q0 -233 209 -233h14v287h657v-840z" />
    <glyph glyph-name="H" unicode="H" horiz-adv-x="1960" 
d="M1837 0h-688v571h-338v-571h-688v1544h688v-567h338v567h688v-1544z" />
    <glyph glyph-name="I" unicode="I" horiz-adv-x="977" 
d="M836 0h-695v1544h695v-1544z" />
    <glyph glyph-name="J" unicode="J" horiz-adv-x="1010" 
d="M887 551q0 -309 -111 -441q-114 -135 -387 -135q-286 0 -409 68l51 358q44 -22 94 -22q45 0 62 39q20 47 20 182v944h680v-993z" />
    <glyph glyph-name="K" unicode="K" horiz-adv-x="1968" 
d="M1993 0h-826l-368 713v-713h-676v1544h676v-651l403 651h758l-518 -710z" />
    <glyph glyph-name="L" unicode="L" horiz-adv-x="1309" 
d="M1260 0h-1137v1544h692v-1114h445v-430z" />
    <glyph glyph-name="M" unicode="M" horiz-adv-x="2204" 
d="M2179 0h-657l-86 602l-170 -602h-332l-170 602l-86 -602h-658l209 1544h713l158 -651l157 651h713z" />
    <glyph glyph-name="N" unicode="N" horiz-adv-x="1782" 
d="M1659 0h-533l-311 453v-453h-692v1544h500l364 -500v500h672v-1544z" />
    <glyph glyph-name="O" unicode="O" horiz-adv-x="1778" 
d="M1722 772q0 -335 -230 -563q-237 -234 -603 -234t-603 233q-231 228 -231 564q0 335 231 563q238 234 603 234q366 0 603 -234q230 -228 230 -563zM1067 772q0 109 -57 180q-52 64 -121 64q-70 0 -122 -64q-56 -70 -56 -180q0 -111 57 -180q51 -64 121 -64q71 0 122 64
q56 69 56 180z" />
    <glyph glyph-name="P" unicode="P" horiz-adv-x="1700" 
d="M1657 1010q0 -198 -139 -336q-145 -144 -369 -144q-179 0 -338 74v-604h-688v1544h842q315 0 480 -101q212 -129 212 -433zM1042 1055q0 155 -206 155h-25v-315h20q211 0 211 160z" />
    <glyph glyph-name="Q" unicode="Q" horiz-adv-x="1778" 
d="M1778 0h-512l-27 53q-165 -78 -350 -78q-366 0 -603 233q-231 228 -231 564q0 335 231 563q238 234 603 234t602 -234q231 -228 231 -563q0 -268 -166 -469zM1067 772q0 109 -57 180q-52 64 -121 64q-70 0 -122 -64q-56 -70 -56 -180q0 -111 57 -180q51 -64 121 -64
q71 0 122 64q56 69 56 180z" />
    <glyph glyph-name="R" unicode="R" horiz-adv-x="1806" 
d="M1819 0h-768l-236 571v-571h-692v1544h905q324 0 489 -107q191 -124 191 -403q0 -295 -250 -399zM1028 1071q0 172 -192 172h-21v-352h21q192 0 192 180z" />
    <glyph glyph-name="S" unicode="S" horiz-adv-x="1597" 
d="M1520 479q0 -234 -170 -364q-183 -140 -543 -140q-401 0 -721 131l86 412q183 -137 424 -137q141 0 141 65q0 46 -40 77q-49 37 -208 100q-201 80 -281.5 187t-80.5 296q0 195 188 325q198 138 519 138q175 0 356 -36q171 -33 274 -83l-71 -381q-271 145 -457 145
q-111 0 -111 -79q0 -46 47 -78q57 -39 252 -119q231 -94 316 -196q80 -96 80 -263z" />
    <glyph glyph-name="T" unicode="T" horiz-adv-x="1370" 
d="M1327 1114h-295v-1114h-694v1114h-295v430h1284v-430z" />
    <glyph glyph-name="U" unicode="U" horiz-adv-x="1759" 
d="M1653 678q0 -370 -191 -539q-186 -164 -583 -164q-396 0 -582 164q-191 169 -191 539v866h691v-839q0 -102 18 -139.5t64 -37.5q49 0 66.5 35.5t17.5 141.5v839h690v-866z" />
    <glyph glyph-name="V" unicode="V" horiz-adv-x="1774" 
d="M1810 1544l-475 -1544h-897l-475 1544h688l236 -1052l235 1052h688z" />
    <glyph glyph-name="W" unicode="W" horiz-adv-x="2204" 
d="M2222 1544l-455 -1544h-505l-160 571l-160 -571h-506l-454 1544h651l117 -571l135 571h434l135 -571l117 571h651z" />
    <glyph glyph-name="X" unicode="X" horiz-adv-x="1925" 
d="M1944 0h-754l-227 492l-228 -492h-753l540 823l-530 721h751l220 -454l219 454h751l-530 -721z" />
    <glyph glyph-name="Y" unicode="Y" horiz-adv-x="1769" 
d="M1788 1544l-559 -887v-657h-688v657l-559 887h737l166 -383l166 383h737z" />
    <glyph glyph-name="Z" unicode="Z" horiz-adv-x="1513" 
d="M1513 1544l-567 -1114h524v-430h-1470l563 1114h-506v430h1456z" />
    <glyph glyph-name="bracketleft" unicode="[" horiz-adv-x="1024" 
d="M963 -315h-875v1859h875v-315h-285v-1229h285v-315z" />
    <glyph glyph-name="backslash" unicode="\" horiz-adv-x="719" 
d="M793 -127h-261l-569 1671h268z" />
    <glyph glyph-name="bracketright" unicode="]" horiz-adv-x="1024" 
d="M936 -315h-875v315h285v1229h-285v315h875v-1859z" />
    <glyph glyph-name="asciicircum" unicode="^" horiz-adv-x="1024" 
d="M1010 965h-246l-252 317l-250 -317h-248l359 579h276z" />
    <glyph glyph-name="underscore" unicode="_" horiz-adv-x="1024" 
d="M1036 -496h-1048v291h1048v-291z" />
    <glyph glyph-name="grave" unicode="`" horiz-adv-x="768" 
d="M711 1208h-199l-393 336h356z" />
    <glyph glyph-name="a" unicode="a" horiz-adv-x="1671" 
d="M1569 0h-627v117q-54 -50 -142 -93q-109 -53 -196 -53q-248 0 -405 180q-154 177 -154 451q0 338 153 519q140 165 375 165q109 0 205 -31q116 -37 164 -106v100h627v-1249zM942 463v330q-48 34 -127 34q-61 0 -102 -58t-41 -148q0 -80 41.5 -137.5t99.5 -57.5
q75 0 129 37z" />
    <glyph glyph-name="b" unicode="b" horiz-adv-x="1671" 
d="M1626 602q0 -274 -154 -451q-157 -180 -405 -180q-87 0 -196 53q-88 43 -142 93v-117h-627v1720h633v-471q0 -19 -3 -51.5t-3 -48.5q48 69 164 106q96 31 205 31q235 0 375 -165q153 -181 153 -519zM999 621q0 90 -41 148t-102 58q-79 0 -127 -34v-330q54 -37 129 -37
q58 0 99.5 57.5t41.5 137.5z" />
    <glyph glyph-name="c" unicode="c" horiz-adv-x="1288" 
d="M1190 20q-155 -45 -311 -45q-385 0 -595 149q-235 165 -235 503q0 304 217 483q202 166 510 166q93 0 219 -17q135 -18 195 -42v-441q-118 45 -232 45q-237 0 -237 -186q0 -86 57 -142q63 -63 172 -63q127 0 240 47v-457z" />
    <glyph glyph-name="d" unicode="d" horiz-adv-x="1671" 
d="M1569 0h-627v117q-54 -50 -142 -93q-109 -53 -196 -53q-248 0 -405 180q-154 177 -154 451q0 338 153 519q140 165 375 165q109 0 205 -31q116 -37 164 -106q0 16 -3 48.5t-3 51.5v471h633v-1720zM942 463v330q-48 34 -127 34q-61 0 -102 -58t-41 -148q0 -80 41.5 -137.5
t99.5 -57.5q75 0 129 37z" />
    <glyph glyph-name="e" unicode="e" horiz-adv-x="1513" 
d="M1468 590h-862q0 -99 46 -154q41 -49 106 -49q107 0 141 92l547 -51q-42 -212 -233 -334q-186 -119 -455 -119q-288 0 -493 179q-216 189 -216 479q0 289 215 470q202 171 494 171t492 -176q218 -191 218 -508zM909 774q0 137 -151 137q-152 0 -152 -137h303z" />
    <glyph glyph-name="f" unicode="f" horiz-adv-x="1116" 
d="M1092 596h-265v-596h-632v596h-144v369h144v176q0 299 164.5 461.5t467.5 162.5q105 0 265 -45v-514q-93 43 -160 43q-109 0 -109 -153v-131h269v-369z" />
    <glyph glyph-name="g" unicode="g" horiz-adv-x="1602" 
d="M1503 279q0 -318 -196 -497q-192 -175 -525 -175q-208 0 -360 43q-139 40 -283 133v500q183 -177 453 -177q278 0 278 162v70q-118 -90 -274 -90q-219 0 -358.5 135.5t-139.5 353.5q0 267 150 418q128 129 309 129q214 0 313 -102v67h633v-970zM870 594v303h-26
q-203 0 -203 -160q0 -172 139 -172q48 0 90 29z" />
    <glyph glyph-name="h" unicode="h" horiz-adv-x="1667" 
d="M1571 0h-615v731q0 166 -129 166q-50 0 -92 -45v-852h-633v1720h633v-600q145 148 363 148q224 0 348.5 -113t124.5 -324v-831z" />
    <glyph glyph-name="i" unicode="i" horiz-adv-x="842" 
d="M737 1579q0 -116 -100 -187q-90 -65 -215 -65t-217 65q-101 71 -101 187q0 117 101 190q92 66 217 66t215 -66q100 -72 100 -190zM737 0h-633v1249h633v-1249z" />
    <glyph glyph-name="j" unicode="j" horiz-adv-x="842" 
d="M737 1579q0 -116 -100 -187q-90 -65 -215 -65t-217 65q-101 71 -101 187q0 117 101 190q92 66 217 66t215 -66q100 -72 100 -190zM737 -451h-633v1700h633v-1700z" />
    <glyph glyph-name="k" unicode="k" horiz-adv-x="1634" 
d="M1634 0h-663l-240 616v-616h-629v1720h629v-1003l232 532h630l-307 -592z" />
    <glyph glyph-name="l" unicode="l" horiz-adv-x="854" 
d="M743 0h-632v1720h632v-1720z" />
    <glyph glyph-name="m" unicode="m" horiz-adv-x="2226" 
d="M2130 0h-553v739q0 87 -18 116q-17 26 -68 26q-54 0 -98 -41v-840h-553v739q0 86 -19 116q-18 26 -69 26q-50 0 -97 -41v-840h-553v1249h545v-141q170 158 346 158q113 0 206 -39q103 -43 147 -119q178 154 360 154q424 0 424 -406v-856z" />
    <glyph glyph-name="n" unicode="n" horiz-adv-x="1655" 
d="M1559 0h-615v731q0 166 -129 166q-50 0 -92 -45v-852h-621v1249h613v-129q157 148 370 148q224 0 349 -113t125 -324v-831z" />
    <glyph glyph-name="o" unicode="o" horiz-adv-x="1671" 
d="M1624 633q0 -289 -242 -479q-229 -179 -546 -179q-320 0 -548 179q-241 189 -241 479q0 289 239 470q226 171 550 171q321 0 547 -171q241 -182 241 -470zM1004 633q0 186 -168 186t-168 -186q0 -99 50 -154q46 -49 118 -49q70 0 116 49q52 55 52 154z" />
    <glyph glyph-name="p" unicode="p" horiz-adv-x="1671" 
d="M1626 647q0 -338 -153 -519q-140 -165 -375 -165q-109 0 -205 31q-116 37 -164 106q0 -16 3 -48.5t3 -51.5v-451h-633v1700h627v-116q53 50 142 92q109 53 196 53q248 0 405 -180q154 -177 154 -451zM999 629q0 80 -41.5 137t-99.5 57q-75 0 -129 -37v-329
q49 -35 127 -35q61 0 102 58.5t41 148.5z" />
    <glyph glyph-name="q" unicode="q" horiz-adv-x="1671" 
d="M1569 -451h-633v451q0 19 3 51.5t3 48.5q-48 -69 -164 -106q-96 -31 -205 -31q-235 0 -375 165q-153 181 -153 519q0 274 155.5 452.5t403.5 178.5q87 0 196 -53q89 -42 142 -92v116h627v-1700zM942 457v329q-54 37 -129 37q-58 0 -99.5 -57t-41.5 -137q0 -90 41 -148.5
t102 -58.5q78 0 127 35z" />
    <glyph glyph-name="r" unicode="r" horiz-adv-x="1241" 
d="M1241 1249l-41 -534q-77 45 -215 45q-104 0 -158 -90q-77 -126 -77 -441v-229h-648v1249h648v-241q143 278 299 278q112 0 192 -37z" />
    <glyph glyph-name="s" unicode="s" horiz-adv-x="1309" 
d="M1284 397q0 -193 -166 -309.5t-446 -116.5q-396 0 -641 181l108 292q185 -161 340 -161q142 0 142 82q0 45 -63 83q-46 28 -169 74q-170 63 -248 150.5t-78 220.5q0 185 159 289t448 104q291 0 575 -117l-127 -299q-91 68 -160.5 92.5t-169.5 24.5q-102 0 -102 -84
q0 -64 108 -105q90 -28 181 -55q309 -111 309 -346z" />
    <glyph glyph-name="t" unicode="t" horiz-adv-x="956" 
d="M1001 881h-215v-881h-657v881h-129v368h129v295h657v-295h215v-368z" />
    <glyph glyph-name="u" unicode="u" horiz-adv-x="1511" 
d="M1464 586q0 -286 -217 -457q-200 -158 -491 -158q-292 0 -492 158q-217 171 -217 457v663h557v-616q0 -86 46 -136q42 -46 106 -46q63 0 106 46q47 50 47 136v616h555v-663z" />
    <glyph glyph-name="v" unicode="v" horiz-adv-x="1659" 
d="M1683 1249l-555 -1249h-598l-555 1249h701l153 -508l154 508h700z" />
    <glyph glyph-name="w" unicode="w" horiz-adv-x="2064" 
d="M2083 1249l-459 -1249h-448l-144 389l-143 -389h-449l-458 1249h661l100 -352l134 352h311l133 -352l100 352h662z" />
    <glyph glyph-name="x" unicode="x" horiz-adv-x="1712" 
d="M1737 0h-754l-127 326l-127 -326h-754l441 657l-404 592h721l123 -295l123 295h721l-404 -592z" />
    <glyph glyph-name="y" unicode="y" horiz-adv-x="1509" 
d="M1546 1249l-694 -1618h-698l276 627l-442 991h680l100 -307l117 307h661z" />
    <glyph glyph-name="z" unicode="z" horiz-adv-x="1393" 
d="M1374 1249l-446 -817h422v-432h-1332l465 852h-422v397h1313z" />
    <glyph glyph-name="braceleft" unicode="{" horiz-adv-x="1157" 
d="M1044 -391h-235q-285 0 -372 68q-79 61 -79 255v265q0 131 -46.5 184t-161.5 53h-37v285h37q115 0 161.5 53t46.5 182v267q0 192 80 254q89 69 371 69h235v-289h-43q-90 0 -119.5 -31t-29.5 -130v-246q0 -134 -47.5 -190.5t-175.5 -84.5q129 -23 176 -78.5t47 -189.5
v-248q0 -97 29.5 -128t117.5 -31h45v-289z" />
    <glyph glyph-name="bar" unicode="|" horiz-adv-x="1024" 
d="M655 -496h-286v2098h286v-2098z" />
    <glyph glyph-name="braceright" unicode="}" horiz-adv-x="1157" 
d="M1044 434h-36q-115 0 -162 -53t-47 -184v-265q0 -194 -79 -255q-87 -68 -372 -68h-235v289h45q88 0 117.5 31t29.5 128v248q0 134 47 189.5t176 78.5q-128 28 -174 83q-49 58 -49 192v246q0 99 -29.5 130t-119.5 31h-43v289h235q282 0 371 -69q80 -62 80 -254v-267
q0 -129 47 -182t162 -53h36v-285z" />
    <glyph glyph-name="asciitilde" unicode="~" 
d="M1556 557q-203 -137 -378 -137q-105 0 -275 59q-202 70 -340 70q-163 0 -391 -160v305q231 146 418 146q107 0 284 -54q252 -77 308 -77q167 0 374 153v-305z" />
    <glyph glyph-name="currency" unicode="&#xa4;" 
d="M1563 231l-164 -172l-244 248q-129 -86 -289 -86t-295 86l-241 -248l-166 172l244 246q-82 129 -82 285q0 146 82 278l-244 248l166 166l241 -246q127 84 295 84q173 0 289 -84l244 246l164 -166l-244 -248q84 -132 84 -282q0 -147 -84 -281zM1165 758q0 121 -89.5 210
t-209.5 89q-122 0 -212.5 -89t-90.5 -210q0 -123 89.5 -212t213.5 -89q120 0 209.5 90.5t89.5 210.5z" />
    <glyph glyph-name="brokenbar" unicode="&#xa6;" horiz-adv-x="1024" 
d="M655 690h-286v776h286v-776zM655 -358h-286v776h286v-776z" />
    <glyph glyph-name="section" unicode="&#xa7;" 
d="M1604 678q0 -236 -256 -336q104 -97 104 -221q0 -188 -159 -307t-425 -119q-295 0 -598 127l74 350q255 -149 449 -149q42 0 70 23q24 19 24 38q0 48 -156 104l-244 88q-366 132 -366 406q0 115 74.5 210t195.5 140q-121 117 -121 209q0 188 161.5 309t426.5 121
q267 0 553 -125l-65 -340q-111 52 -223 104q-108 44 -201 44q-84 0 -84 -76q0 -49 155 -104l248 -89q363 -129 363 -407zM1192 571q0 95 -246 177q-258 86 -319 131q-64 -52 -64 -107q0 -88 246 -168q259 -84 330 -129q53 47 53 96z" />
    <glyph glyph-name="copyright" unicode="&#xa9;" 
d="M1634 758q0 -322 -223 -537q-239 -231 -549 -231q-311 0 -539.5 226.5t-228.5 541.5q0 319 230 551q217 219 538 219q326 0 549 -223t223 -547zM1477 762q0 251 -179.5 430.5t-433.5 179.5q-259 0 -430 -176q-182 -187 -182 -434q0 -252 180 -432q183 -183 432 -183
q246 0 436 185q177 172 177 430zM1260 641q-6 -153 -112 -243.5t-280 -90.5q-200 0 -314 119t-114 328q0 197 108 324q114 134 302 134q180 0 284.5 -81t112.5 -226h-246q-7 137 -135 137q-159 0 -159 -280q0 -266 167 -266q132 0 132 145h254z" />
    <glyph glyph-name="guillemotleft" unicode="&#xab;" horiz-adv-x="1536" 
d="M1421 291l-432 -68l-278 416l282 405l428 -71l-231 -334zM778 291l-432 -68l-278 416l282 405l428 -71l-231 -334z" />
    <glyph glyph-name="logicalnot" unicode="&#xac;" 
d="M1477 377h-279v239h-948v273h1227v-512z" />
    <glyph glyph-name="registered" unicode="&#xae;" 
d="M1634 758q0 -322 -223 -537q-239 -231 -549 -231q-311 0 -539.5 226.5t-228.5 541.5q0 319 230 551q217 219 538 219q326 0 549 -223t223 -547zM1477 762q0 251 -179.5 430.5t-433.5 179.5q-259 0 -430 -176q-182 -187 -182 -434q0 -252 180 -432q183 -183 432 -183
q246 0 436 185q177 172 177 430zM1251 360h-284l-150 320h-24v-320h-263v832h342q367 0 367 -244q0 -165 -168 -223zM969 934q0 96 -135 96h-41v-199h55q121 0 121 103z" />
    <glyph glyph-name="degree" unicode="&#xb0;" horiz-adv-x="690" 
d="M676 1237q0 -134 -98.5 -231t-233.5 -97q-137 0 -233.5 95.5t-96.5 232.5q0 136 98 234t234 98q137 0 233.5 -97.5t96.5 -234.5zM500 1241q0 63 -46 109.5t-110 46.5q-63 0 -108.5 -46t-45.5 -110q0 -66 45 -113t111 -47q63 0 108.5 47.5t45.5 112.5z" />
    <glyph glyph-name="plusminus" unicode="&#xb1;" 
d="M1477 653h-471v-315h-287v315h-469v279h469v317h287v-317h471v-279zM1477 0h-1227v279h1227v-279z" />
    <glyph glyph-name="mu1" unicode="&#xb5;" 
d="M1536 0h-432v104q-101 -104 -219 -104q-184 0 -246 113v-666h-449v1638h449v-559q0 -124 51 -176.5t174 -52.5q126 0 174.5 51.5t48.5 177.5v559h449v-1085z" />
    <glyph glyph-name="mu1" unicode="&#x3bc;" 
d="M1536 0h-432v104q-101 -104 -219 -104q-184 0 -246 113v-666h-449v1638h449v-559q0 -124 51 -176.5t174 -52.5q126 0 174.5 51.5t48.5 177.5v559h449v-1085z" />
    <glyph glyph-name="paragraph" unicode="&#xb6;" 
d="M1509 1341h-133v-1615h-256v1615h-182v-1615h-260v962q-207 9 -334 126t-127 300q0 194 138.5 312t365.5 118h788v-203z" />
    <glyph glyph-name="middot" unicode="&#xb7;" horiz-adv-x="852" 
d="M721 625q0 -111 -85.5 -189t-209.5 -78t-209.5 78t-85.5 189q0 112 85 188t210 76q123 0 209 -76t86 -188z" />
    <glyph glyph-name="guillemotright" unicode="&#xbb;" horiz-adv-x="1536" 
d="M1475 639l-279 -416l-432 68l231 348l-231 334l428 71zM831 639l-278 -416l-432 68l231 348l-231 334l428 71z" />
    <glyph glyph-name="multiply" unicode="&#xd7;" 
d="M1499 199l-201 -199l-436 436l-436 -436l-199 199l437 436l-437 436l199 201l436 -438l436 438l201 -201l-438 -436z" />
    <glyph glyph-name="divide" unicode="&#xf7;" 
d="M1051 1069q0 -76 -55.5 -131t-133.5 -55t-132 54t-54 132t55 133t133 55q76 0 131.5 -55.5t55.5 -132.5zM1477 500h-1227v278h1227v-278zM1051 205q0 -76 -55.5 -131.5t-133.5 -55.5t-132 54.5t-54 132.5t55 133t133 55q76 0 131.5 -55.5t55.5 -132.5z" />
    <glyph glyph-name="afii10023" unicode="&#x401;" horiz-adv-x="1450" 
d="M1178 1819q0 -74 -57 -125.5t-138 -51.5t-138 51.5t-57 125.5q0 73 56.5 122.5t138.5 49.5t138.5 -49.5t56.5 -122.5zM668 1819q0 -74 -57 -125.5t-138 -51.5t-137.5 51.5t-56.5 125.5q0 73 56 122.5t138 49.5t138.5 -49.5t56.5 -122.5zM1352 0h-1229v1544h1229v-385
h-553v-184h489v-383h-489v-191h553v-401z" />
    <glyph glyph-name="afii10017" unicode="&#x410;" horiz-adv-x="2028" 
d="M2052 0h-704l-80 266h-508l-80 -266h-705l545 1544h987zM1161 627l-147 497l-148 -497h295z" />
    <glyph glyph-name="afii10018" unicode="&#x411;" horiz-adv-x="1737" 
d="M1675 535q0 -535 -706 -535h-846v1544h1399v-430h-742v-174q118 55 373 55q228 0 375 -132.5t147 -327.5zM1047 489q0 160 -211 160h-56v-315h60q207 0 207 155z" />
    <glyph glyph-name="afii10019" unicode="&#x412;" horiz-adv-x="1782" 
d="M1726 449q0 -449 -710 -449h-893v1544h932q270 0 430 -105q164 -109 164 -298q0 -105 -51 -172q-49 -63 -162 -115q290 -84 290 -405zM995 1059q0 69 -51 112t-143 43h-21v-319h21q194 0 194 164zM1016 524q0 156 -215 156h-21v-320h21q215 0 215 164z" />
    <glyph glyph-name="afii10020" unicode="&#x413;" horiz-adv-x="1309" 
d="M1260 1114h-445v-1114h-692v1544h1137v-430z" />
    <glyph glyph-name="afii10021" unicode="&#x414;" horiz-adv-x="2019" 
d="M2001 -295h-492v295h-999v-295h-492v701q95 0 142 76q55 92 55 313v749h1628v-1138h158v-701zM1167 406v727h-325v-424q0 -215 -107 -303h432z" />
    <glyph glyph-name="afii10022" unicode="&#x415;" horiz-adv-x="1450" 
d="M1352 0h-1229v1544h1229v-385h-553v-184h489v-383h-489v-191h553v-401z" />
    <glyph glyph-name="afii10024" unicode="&#x416;" horiz-adv-x="2779" 
d="M2798 0h-793l-287 713v-713h-657v713l-287 -713h-792l460 834l-430 710h729l320 -651v651h657v-651l320 651h729l-430 -710z" />
    <glyph glyph-name="afii10025" unicode="&#x417;" horiz-adv-x="1432" 
d="M1376 432q0 -457 -671 -457q-425 0 -662 142l92 385q142 -115 295 -115q201 0 201 158q0 75 -61 103q-57 26 -201 26h-84v276h84q141 0 195 27t54 100q0 123 -200 123q-175 0 -283 -102l-55 360q254 111 631 111q309 0 476 -108t167 -314q0 -230 -262 -346
q284 -125 284 -369z" />
    <glyph glyph-name="afii10026" unicode="&#x418;" horiz-adv-x="1997" 
d="M1874 0h-688v713l-449 -713h-614v1544h688v-737l446 737h617v-1544z" />
    <glyph glyph-name="afii10027" unicode="&#x419;" horiz-adv-x="1997" 
d="M1430 1989q0 -332 -431 -332q-430 0 -430 332h295q0 -148 135 -148q136 0 136 148h295zM1874 0h-688v713l-449 -713h-614v1544h688v-737l446 737h617v-1544z" />
    <glyph glyph-name="afii10028" unicode="&#x41a;" horiz-adv-x="1968" 
d="M1993 0h-826l-368 713v-713h-676v1544h676v-651l403 651h758l-518 -710z" />
    <glyph glyph-name="afii10029" unicode="&#x41b;" horiz-adv-x="1964" 
d="M1835 0h-676v1114h-325v-631q0 -508 -515 -508q-199 0 -346 54l47 403q52 -26 115 -26q38 0 54 34q18 42 18 156v948h1628v-1544z" />
    <glyph glyph-name="afii10030" unicode="&#x41c;" horiz-adv-x="2203" 
d="M2181 0h-657l-86 602l-170 -602h-332l-170 602l-86 -602h-658l209 1544h713l158 -651l157 651h713z" />
    <glyph glyph-name="afii10031" unicode="&#x41d;" horiz-adv-x="1960" 
d="M1837 0h-688v571h-338v-571h-688v1544h688v-567h338v567h688v-1544z" />
    <glyph glyph-name="afii10032" unicode="&#x41e;" horiz-adv-x="1778" 
d="M1722 772q0 -335 -230 -563q-237 -234 -603 -234t-603 233q-231 228 -231 564q0 335 231 563q238 234 603 234q366 0 603 -234q230 -228 230 -563zM1067 772q0 109 -57 180q-52 64 -121 64q-70 0 -122 -64q-56 -70 -56 -180q0 -111 57 -180q51 -64 121 -64q71 0 122 64
q56 69 56 180z" />
    <glyph glyph-name="afii10033" unicode="&#x41f;" horiz-adv-x="1948" 
d="M1825 0h-688v1114h-326v-1114h-688v1544h1702v-1544z" />
    <glyph glyph-name="afii10034" unicode="&#x420;" horiz-adv-x="1700" 
d="M1657 1010q0 -198 -139 -336q-145 -144 -369 -144q-179 0 -338 74v-604h-688v1544h842q315 0 480 -101q212 -129 212 -433zM1042 1055q0 155 -206 155h-25v-315h20q211 0 211 160z" />
    <glyph glyph-name="afii10035" unicode="&#x421;" horiz-adv-x="1401" 
d="M1290 33q-189 -58 -381 -58q-381 0 -608 201q-240 213 -240 596q0 401 242 609q219 188 594 188q188 0 393 -60v-536q-137 61 -254 61q-100 0 -161 -78q-56 -71 -56 -168q0 -100 56 -175q62 -85 161 -85q141 0 254 60v-555z" />
    <glyph glyph-name="afii10036" unicode="&#x422;" horiz-adv-x="1370" 
d="M1327 1114h-295v-1114h-694v1114h-295v430h1284v-430z" />
    <glyph glyph-name="afii10037" unicode="&#x423;" horiz-adv-x="1597" 
d="M1634 1544l-661 -1544h-649l174 403l-498 1141h657l166 -385l166 385h645z" />
    <glyph glyph-name="afii10038" unicode="&#x424;" horiz-adv-x="2435" 
d="M2392 793q0 -249 -181.5 -386t-510.5 -137h-154v-270h-657v270h-154q-329 0 -510.5 137t-181.5 386t182 383.5t510 134.5h154v233h657v-233h154q328 0 510 -134.5t182 -383.5zM1778 793q0 71 -45 125q-50 59 -127 59h-60v-375h51q80 0 130.5 55.5t50.5 135.5zM889 602
v375h-60q-77 0 -127 -59q-45 -54 -45 -125q0 -80 50.5 -135.5t130.5 -55.5h51z" />
    <glyph glyph-name="afii10039" unicode="&#x425;" horiz-adv-x="1926" 
d="M1944 0h-754l-227 492l-228 -492h-753l540 823l-530 721h751l220 -454l219 454h751l-530 -721z" />
    <glyph glyph-name="afii10040" unicode="&#x426;" horiz-adv-x="1982" 
d="M1995 -295h-492v295h-1368v1544h688v-1138h326v1138h688v-1138h158v-701z" />
    <glyph glyph-name="afii10041" unicode="&#x427;" horiz-adv-x="1755" 
d="M1626 0h-692v584q-145 -121 -338 -121q-230 0 -376 147.5t-146 378.5v555h628v-467q0 -159 211 -159h21v626h692v-1544z" />
    <glyph glyph-name="afii10042" unicode="&#x428;" horiz-adv-x="2476" 
d="M2353 0h-2230v1544h614v-1138h307v964h388v-964h307v1138h614v-1544z" />
    <glyph glyph-name="afii10043" unicode="&#x429;" horiz-adv-x="2535" 
d="M2523 -295h-491v295h-1897v1544h615v-1138h307v964h387v-964h307v1138h614v-1138h158v-701z" />
    <glyph glyph-name="afii10044" unicode="&#x42a;" horiz-adv-x="1880" 
d="M1837 535q0 -535 -707 -535h-811v1114h-294v430h952v-604q159 74 338 74q233 0 377.5 -130t144.5 -349zM1208 489q0 160 -211 160h-20v-315h24q207 0 207 155z" />
    <glyph glyph-name="afii10045" unicode="&#x42b;" horiz-adv-x="2513" 
d="M2390 0h-668v1544h668v-1544zM1618 535q0 -304 -210 -433q-164 -102 -478 -102h-821v1544h667v-604q127 59 338 59q225 0 367 -136q137 -131 137 -328zM1008 489q0 160 -211 160h-21v-315h25q207 0 207 155z" />
    <glyph glyph-name="afii10046" unicode="&#x42c;" horiz-adv-x="1714" 
d="M1671 535q0 -535 -706 -535h-842v1544h688v-604q159 74 338 74q226 0 376 -143q146 -139 146 -336zM1042 489q0 160 -211 160h-20v-315h25q206 0 206 155z" />
    <glyph glyph-name="afii10047" unicode="&#x42d;" horiz-adv-x="1398" 
d="M1337 772q0 -383 -240 -596q-227 -201 -608 -201q-201 0 -378 72v455q108 -72 266 -72q99 0 161 47q74 57 74 172h-280v295h274q0 102 -71 157q-62 48 -158 48q-145 0 -266 -92v432q187 80 391 80q375 0 593 -188q242 -208 242 -609z" />
    <glyph glyph-name="afii10048" unicode="&#x42e;" horiz-adv-x="2664" 
d="M2609 772q0 -364 -249 -587q-234 -210 -578 -210q-369 0 -604 175t-260 466h-119v-616h-676v1544h676v-618h119q25 269 263 453q246 190 601 190q349 0 579 -206q248 -220 248 -591zM1960 768q0 109 -57 180q-52 64 -121 64q-70 0 -122 -64q-56 -70 -56 -180
q0 -111 57 -180q51 -64 121 -64q71 0 122 64q56 69 56 180z" />
    <glyph glyph-name="afii10049" unicode="&#x42f;" horiz-adv-x="1745" 
d="M1628 0h-682v545l-215 -545h-713l308 590q-271 141 -271 444q0 279 255 409q199 101 524 101h794v-1544zM946 840v370h-10q-95 0 -152 -54q-53 -51 -53 -128q0 -82 53 -133q57 -55 156 -55h6z" />
    <glyph glyph-name="afii10065" unicode="&#x430;" horiz-adv-x="1671" 
d="M1569 0h-627v117q-54 -50 -142 -93q-109 -53 -196 -53q-248 0 -405 180q-154 177 -154 451q0 316 160 506q150 178 379 178q232 0 358 -137v100h627v-1249zM942 508v266q-30 12 -88 12q-182 0 -182 -155q0 -146 141 -146q86 0 129 23z" />
    <glyph glyph-name="afii10066" unicode="&#x431;" horiz-adv-x="1503" 
d="M1513 608q0 -292 -217 -469q-202 -164 -501 -164q-361 0 -546.5 209t-185.5 602q0 457 195.5 695.5t572.5 238.5q191 0 251 17q49 15 57 61h327q0 -231 -144 -327q-120 -80 -370 -80q-243 0 -378 -79q-142 -83 -142 -243q195 154 453 154q255 0 432 -154
q196 -171 196 -461zM952 625q0 194 -157 194q-156 0 -156 -194q0 -195 156 -195q157 0 157 195z" />
    <glyph glyph-name="afii10067" unicode="&#x432;" horiz-adv-x="1620" 
d="M1577 369q0 -192 -170 -288q-142 -81 -369 -81h-934v1249h814q282 0 411 -73.5t129 -229.5q0 -83 -45 -141q-39 -51 -131 -105q295 -75 295 -331zM918 834q0 102 -154 102h-39v-227q90 6 129 24q64 29 64 101zM936 424q0 113 -172 113h-39v-224h41q95 0 132.5 23.5
t37.5 87.5z" />
    <glyph glyph-name="afii10068" unicode="&#x433;" horiz-adv-x="1143" 
d="M1112 881h-356v-881h-652v1249h1008v-368z" />
    <glyph glyph-name="afii10069" unicode="&#x434;" horiz-adv-x="1772" 
d="M1759 -258h-454v258h-838v-258h-455v596q148 0 148 233v678h1482v-911h117v-596zM1022 338v573h-287v-372q0 -148 -78 -201h365z" />
    <glyph glyph-name="afii10070" unicode="&#x435;" horiz-adv-x="1521" 
d="M1470 590h-862q0 -99 46 -154q41 -49 106 -49q107 0 141 92l547 -51q-42 -212 -233 -334q-186 -119 -455 -119q-288 0 -493 179q-216 189 -216 479q0 289 215 470q202 171 494 171t492 -176q218 -191 218 -508zM911 774q0 137 -151 137q-152 0 -152 -137h303z" />
    <glyph glyph-name="afii10072" unicode="&#x436;" horiz-adv-x="2519" 
d="M2519 0h-707l-239 616v-616h-627v616l-239 -616h-707l348 657l-307 592h674l231 -557v557h627v-557l231 557h674l-307 -592z" />
    <glyph glyph-name="afii10073" unicode="&#x437;" horiz-adv-x="1298" 
d="M1243 350q0 -370 -604 -370q-381 0 -608 92l75 336q135 -91 285 -91q182 0 182 123q0 71 -89 90q-35 7 -148 7h-70v258h70q103 0 140 7q97 17 97 77q0 96 -190 96q-157 0 -262 -90l-68 293q213 92 535 92q282 0 444 -87q168 -91 168 -255q0 -195 -213 -281
q256 -99 256 -297z" />
    <glyph glyph-name="afii10074" unicode="&#x438;" horiz-adv-x="1825" 
d="M1720 0h-639v559l-422 -559h-555v1249h639v-577l422 577h555v-1249z" />
    <glyph glyph-name="afii10075" unicode="&#x439;" horiz-adv-x="1825" 
d="M1343 1720q0 -331 -430 -331t-430 331h295q0 -147 135 -147q136 0 136 147h294zM1720 0h-639v559l-422 -559h-555v1249h639v-577l422 577h555v-1249z" />
    <glyph glyph-name="afii10076" unicode="&#x43a;" horiz-adv-x="1763" 
d="M1782 0h-725l-314 616v-616h-639v1249h639v-557l310 557h692l-385 -592z" />
    <glyph glyph-name="afii10077" unicode="&#x43b;" horiz-adv-x="1798" 
d="M1688 0h-646v881h-292v-412q0 -261 -105.5 -375t-339.5 -114q-193 0 -319 63l34 326q50 -21 95 -21q71 0 71 156v745h1502v-1249z" />
    <glyph glyph-name="afii10078" unicode="&#x43c;" horiz-adv-x="1901" 
d="M1927 0h-620l-50 465l-141 -465h-332l-141 465l-49 -465h-621l148 1249h690l139 -438l140 438h690z" />
    <glyph glyph-name="afii10079" unicode="&#x43d;" horiz-adv-x="1739" 
d="M1634 0h-645v473h-239v-473h-646v1249h646v-426h239v426h645v-1249z" />
    <glyph glyph-name="afii10080" unicode="&#x43e;" horiz-adv-x="1671" 
d="M1624 633q0 -289 -242 -479q-229 -179 -546 -179q-320 0 -548 179q-241 189 -241 479q0 289 239 470q226 171 550 171q321 0 547 -171q241 -182 241 -470zM1004 633q0 186 -168 186t-168 -186q0 -99 50 -154q46 -49 118 -49q70 0 116 49q52 55 52 154z" />
    <glyph glyph-name="afii10081" unicode="&#x43f;" horiz-adv-x="1739" 
d="M1634 0h-645v881h-239v-881h-646v1249h1530v-1249z" />
    <glyph glyph-name="afii10082" unicode="&#x440;" horiz-adv-x="1671" 
d="M1626 647q0 -338 -153 -519q-140 -165 -375 -165q-109 0 -205 31q-116 37 -164 106q0 -16 3 -48.5t3 -51.5v-451h-633v1700h627v-116q54 60 161 106q111 47 208 47q246 0 390 -184q138 -175 138 -455zM999 606q0 67 -41 112.5t-100 45.5q-75 0 -129 -37v-229
q49 -35 127 -35q60 0 101.5 41.5t41.5 101.5z" />
    <glyph glyph-name="afii10083" unicode="&#x441;" horiz-adv-x="1288" 
d="M1190 20q-155 -45 -311 -45q-385 0 -595 149q-235 165 -235 503q0 304 217 483q202 166 510 166q93 0 219 -17q135 -18 195 -42v-441q-118 45 -232 45q-237 0 -237 -186q0 -86 57 -142q63 -63 172 -63q127 0 240 47v-457z" />
    <glyph glyph-name="afii10084" unicode="&#x442;" horiz-adv-x="1327" 
d="M1296 881h-307v-881h-651v881h-307v368h1265v-368z" />
    <glyph glyph-name="afii10085" unicode="&#x443;" horiz-adv-x="1509" 
d="M1546 1249l-694 -1618h-698l276 627l-442 991h680l100 -307l117 307h661z" />
    <glyph glyph-name="afii10086" unicode="&#x444;" horiz-adv-x="2382" 
d="M2330 637q0 -312 -162 -487q-150 -162 -387 -162q-163 0 -277 59v-498h-626v498q-114 -59 -277 -59q-237 0 -387 162q-162 175 -162 487q0 310 160 481q146 156 385 156q154 0 281 -53v499h626v-499q127 53 281 53q239 0 385 -156q160 -171 160 -481zM1758 637
q0 182 -153 182q-67 0 -105 -35v-301q32 -41 101 -41q157 0 157 195zM882 483v301q-38 35 -105 35q-153 0 -153 -182q0 -195 157 -195q69 0 101 41z" />
    <glyph glyph-name="afii10087" unicode="&#x445;" horiz-adv-x="1712" 
d="M1737 0h-754l-127 326l-127 -326h-754l441 657l-404 592h721l123 -295l123 295h721l-404 -592z" />
    <glyph glyph-name="afii10088" unicode="&#x446;" horiz-adv-x="1739" 
d="M1739 -258h-455v258h-1173v1249h645v-911h221v911h645v-911h117v-596z" />
    <glyph glyph-name="afii10089" unicode="&#x447;" horiz-adv-x="1675" 
d="M1571 0h-645v453q-166 -88 -301 -88q-285 0 -416 99q-148 110 -148 370v415h613v-454q0 -74 22.5 -99.5t87.5 -25.5q90 0 142 49v530h645v-1249z" />
    <glyph glyph-name="afii10090" unicode="&#x448;" horiz-adv-x="2216" 
d="M2111 0h-2007v1249h615v-921h215v784h348v-784h215v921h614v-1249z" />
    <glyph glyph-name="afii10091" unicode="&#x449;" horiz-adv-x="2234" 
d="M2234 -258h-454v258h-1669v1249h614v-911h215v774h348v-774h215v911h615v-911h116v-596z" />
    <glyph glyph-name="afii10092" unicode="&#x44a;" horiz-adv-x="1837" 
d="M1792 489q0 -210 -166 -343q-182 -146 -508 -146h-829v881h-271v368h920v-383q39 45 133 81q99 38 195 38q252 0 392 -137q134 -132 134 -359zM1184 496q0 112 -35 156q-30 38 -100 38q-62 0 -111 -57v-320h90q156 0 156 183z" />
    <glyph glyph-name="afii10093" unicode="&#x44b;" horiz-adv-x="2402" 
d="M2296 0h-633v1249h633v-1249zM1575 514q0 -207 -165 -352q-183 -162 -490 -162h-814v1249h633v-383q39 45 133 81q99 38 195 38q246 0 383 -141q125 -128 125 -330zM985 496q0 112 -35 156q-30 38 -100 38q-62 0 -111 -57v-320h82q164 0 164 183z" />
    <glyph glyph-name="afii10094" unicode="&#x44c;" horiz-adv-x="1653" 
d="M1608 489q0 -210 -166 -343q-182 -146 -508 -146h-830v1249h650v-383q39 45 132 81q99 38 195 38q253 0 393 -137q134 -132 134 -359zM999 496q0 112 -35 156q-30 38 -100 38q-61 0 -110 -57v-320h90q155 0 155 183z" />
    <glyph glyph-name="afii10095" unicode="&#x44d;" horiz-adv-x="1274" 
d="M1225 625q0 -310 -215 -482q-204 -163 -547 -163q-185 0 -365 45v419q128 -82 262 -82q213 0 213 175h-280v258h270q0 76 -52 121q-55 47 -151 47q-140 0 -262 -76v319q183 64 375 64q752 0 752 -645z" />
    <glyph glyph-name="afii10096" unicode="&#x44e;" horiz-adv-x="2298" 
d="M2249 637q0 -289 -222 -478q-211 -179 -501 -179q-258 0 -457 143q-208 150 -254 391h-78v-514h-633v1249h633v-467h82q54 228 258 365q194 131 449 131q294 0 501 -171q222 -182 222 -470zM1681 637q0 86 -48 138q-44 48 -107 48q-65 0 -109 -48q-47 -51 -47 -138
q0 -98 47 -153q43 -50 109 -50q65 0 107 50q48 56 48 153z" />
    <glyph glyph-name="afii10097" unicode="&#x44f;" horiz-adv-x="1679" 
d="M1575 0h-645v383l-205 -383h-694l266 387q-242 93 -242 412q0 203 176 323q186 127 519 127h825v-1249zM930 596v340h-56q-190 0 -190 -182q0 -112 35 -157q31 -38 100 -38q74 0 111 37z" />
    <glyph glyph-name="afii10071" unicode="&#x451;" horiz-adv-x="1530" 
d="M1211 1569q0 -74 -57 -125t-138 -51t-138 51t-57 125q0 73 56.5 122.5t138.5 49.5t138.5 -49.5t56.5 -122.5zM703 1569q0 -74 -57 -125t-138 -51t-137.5 51t-56.5 125q0 73 56 122.5t138 49.5t138.5 -49.5t56.5 -122.5zM1475 578h-862q0 -99 46 -154q41 -49 105 -49
q107 0 141 92l547 -51q-42 -212 -233 -334q-186 -119 -455 -119q-288 0 -493 179q-216 189 -216 479q0 289 215 470q202 171 494 171t493 -176q218 -191 218 -508zM916 762q0 137 -152 137q-151 0 -151 -137h303z" />
    <glyph glyph-name="endash" unicode="&#x2013;" horiz-adv-x="1024" 
d="M1036 412h-1048v454h1048v-454z" />
    <glyph glyph-name="emdash" unicode="&#x2014;" horiz-adv-x="2048" 
d="M2060 412h-2072v454h2072v-454z" />
    <glyph glyph-name="quoteleft" unicode="&#x2018;" horiz-adv-x="852" 
d="M717 741h-621v25l592 823h29v-848z" />
    <glyph glyph-name="quoteright" unicode="&#x2019;" horiz-adv-x="852" 
d="M756 1520l-592 -824h-29v848h621v-24z" />
    <glyph glyph-name="quotesinglbase" unicode="&#x201a;" horiz-adv-x="852" 
d="M756 475l-592 -823h-29v848h621v-25z" />
    <glyph glyph-name="quotedblleft" unicode="&#x201c;" horiz-adv-x="1591" 
d="M1524 741h-621v25l592 823h29v-848zM756 741h-621v25l592 823h29v-848z" />
    <glyph glyph-name="quotedblright" unicode="&#x201d;" horiz-adv-x="1591" 
d="M1524 1520l-592 -824h-29v848h621v-24zM756 1520l-592 -824h-29v848h621v-24z" />
    <glyph glyph-name="quotedblbase" unicode="&#x201e;" horiz-adv-x="1591" 
d="M1524 475l-592 -823h-29v848h621v-25zM756 475l-592 -823h-29v848h621v-25z" />
    <glyph glyph-name="dagger" unicode="&#x2020;" 
d="M1530 657l-404 25v-1051h-522v1051l-407 -25v504l407 -24v407h522v-407l404 24v-504z" />
    <glyph glyph-name="bullet" unicode="&#x2022;" horiz-adv-x="1024" 
d="M846 788q0 -140 -95.5 -236.5t-236.5 -96.5t-238.5 96.5t-97.5 236.5q0 141 97 236.5t239 95.5q140 0 236 -96t96 -236z" />
    <glyph glyph-name="ellipsis" unicode="&#x2026;" horiz-adv-x="2048" 
d="M2009 246q0 -111 -85.5 -188.5t-209.5 -77.5t-209.5 77.5t-85.5 188.5q0 112 85 188t210 76q123 0 209 -76t86 -188zM1319 246q0 -111 -85.5 -188.5t-209.5 -77.5t-209.5 77.5t-85.5 188.5q0 112 85 188t210 76q123 0 209 -76t86 -188zM629 246q0 -111 -85.5 -188.5
t-209.5 -77.5t-209.5 77.5t-85.5 188.5q0 112 85 188t210 76q123 0 209 -76t86 -188z" />
    <glyph glyph-name="perthousand" unicode="&#x2030;" horiz-adv-x="2992" 
d="M2949 434q0 -189 -120 -324t-289 -135q-167 0 -287.5 134.5t-120.5 324.5q0 192 118.5 323.5t289.5 131.5q172 0 290.5 -132t118.5 -323zM1991 434q0 -189 -120.5 -324t-289.5 -135q-167 0 -287 134.5t-120 324.5q0 192 118 323.5t289 131.5q172 0 291 -132t119 -323z
M1544 1569l-815 -1594h-240l805 1594h250zM860 1114q0 -189 -120 -324t-289 -135q-167 0 -287.5 134.5t-120.5 324.5q0 192 118.5 323.5t289.5 131.5q172 0 290.5 -132t118.5 -323zM2640 434q0 148 -100 148q-97 0 -97 -148q0 -151 97 -151q100 0 100 151zM1681 434
q0 148 -100 148q-96 0 -96 -148q0 -151 96 -151q100 0 100 151zM551 1114q0 148 -100 148q-97 0 -97 -148q0 -151 97 -151q100 0 100 151z" />
    <glyph glyph-name="guilsinglleft" unicode="&#x2039;" horiz-adv-x="1024" 
d="M864 291l-432 -68l-278 416l282 405l428 -71l-231 -334z" />
    <glyph glyph-name="guilsinglright" unicode="&#x203a;" horiz-adv-x="1024" 
d="M870 639l-278 -416l-432 68l231 348l-231 334l428 71z" />
    <glyph glyph-name="afii61352" unicode="&#x2116;" horiz-adv-x="2705" 
d="M2619 899q0 -154 -124 -257q-119 -99 -281 -99q-161 0 -279 98q-123 103 -123 258q0 149 123 253q119 101 279 101t280 -100q125 -104 125 -254zM2619 102h-807v308h807v-308zM1665 0h-532l-312 453v-453h-692v1544h500l364 -500v500h672v-1544zM2320 899q0 40 -31.5 69
t-74.5 29q-42 0 -72.5 -29t-30.5 -69t30.5 -68t72.5 -28q44 0 75 28t31 68z" />
    <glyph glyph-name="trademark" unicode="&#x2122;" horiz-adv-x="2048" 
d="M1845 838h-227v462l-174 -462h-88l-172 462v-462h-234v706h324l127 -336l121 336h323v-706zM817 1352h-205v-514h-254v514h-204v192h663v-192z" />
    <glyph glyph-name="minus" unicode="&#xad;" 
d="M1477 483h-1227v285h1227v-285z" />
    <glyph glyph-name="minus" unicode="&#x2212;" 
d="M1477 483h-1227v285h1227v-285z" />
    <glyph glyph-name="periodcentered" unicode="&#x2219;" horiz-adv-x="852" 
d="M721 625q0 -111 -85.5 -189t-209.5 -78t-209.5 78t-85.5 189q0 112 85 188t210 76q123 0 209 -76t86 -188z" />
    <glyph glyph-name="glyph197" horiz-adv-x="1024" 
 />
    </font>
</defs>
</svg>
