<?xml version="1.0"?>
<svg xmlns="http://www.w3.org/2000/svg" xmlns:xlink="http://www.w3.org/1999/xlink" version="1.1" id="Layer_1" x="0px" y="0px" viewBox="0 0 280.028 280.028" style="enable-background:new 0 0 280.028 280.028;" xml:space="preserve" width="512px" height="512px" class=""><g><g>
	<path style="fill:#FFAA2E" d="M26.253,0h227.522c14.5,0,26.253,11.752,26.253,26.253v227.522c0,14.5-11.752,26.253-26.253,26.253   H26.253C11.752,280.027,0,268.275,0,253.775V26.253C0,11.752,11.752,0,26.253,0z" data-original="#BF392C" class="" data-old_color="#ffaa2e"/>
	<path style="fill:#E0E3E4" d="M35.003,52.505h218.771c14.5,0,26.253,11.752,26.253,26.253v175.017   c0,14.5-11.752,26.253-26.253,26.253H35.003C35.003,280.027,35.003,52.505,35.003,52.505z" data-original="#E2574C" class="" data-old_color="#e0e3e4"/>
	<path style="fill:#E0E4E5" d="M96.259,131.263v26.253H210.02v-26.253H96.259z M96.259,192.519H210.02v-17.502H96.259V192.519z" data-original="#B5463D" class="active-path" data-old_color="#e0e4e5"/>
	<path style="fill:#B1B1B1" d="M35.003,17.502h210.021c9.661,0,17.502,7.841,17.502,17.502v17.502H35.003   c-9.661,0-17.502-7.841-17.502-17.502S25.342,17.502,35.003,17.502z" data-original="#E4E7E7" class="" data-old_color="#b1b1b1"/>
	<path style="fill:#121212" d="M35.003,52.505h8.751v227.522h-8.751V52.505z" data-original="#E5685E" class="" data-old_color="#E5685E"/>
</g></g> </svg>
