<?xml version="1.0"?>
<svg xmlns="http://www.w3.org/2000/svg" xmlns:xlink="http://www.w3.org/1999/xlink" version="1.1" id="Capa_1" x="0px" y="0px" viewBox="0 0 58 58" style="enable-background:new 0 0 58 58;" xml:space="preserve" width="512px" height="512px" class=""><g><path style="fill:#E0E3E4" d="M45,15.5l-4-10H17l-4,10H3.799C1.701,15.5,0,17.201,0,19.299v29.368C0,50.784,1.716,52.5,3.833,52.5  h50.333c2.117,0,3.833-1.716,3.833-3.833V19.299c0-2.098-1.701-3.799-3.799-3.799H45z" data-original="#556080" class="" data-old_color="#B1B1B1"/><circle style="stroke: rgb(43, 49, 61); stroke-width: 2; stroke-linecap: round; stroke-miterlimit: 10;fill:#F6A93D" cx="29" cy="31.5" r="17" data-original="#424A60" class="" data-old_color="stroke: rgb(43, 49, 61) stroke-width: 2; stroke-linecap: round; stroke-miterlimit: 10;#F6A93D"/><circle style="fill:#B1B1B1" cx="29" cy="31.5" r="11" data-original="#7383BF" class="" data-old_color="#b1b1b1"/><rect x="6" y="10.5" style="fill:#38454F" width="4" height="5" data-original="#38454F" class=""/><circle style="fill:#F6A93D" cx="51" cy="22.5" r="3" data-original="#EFCE4A" class="" data-old_color="#f6a93d"/><path style="fill:#B1B1B1" d="M32,31.5c0,3.595,1.418,6.778,3.6,8.785c2.667-2.007,4.4-5.19,4.4-8.785s-1.733-6.778-4.4-8.785  C33.418,24.722,32,27.905,32,31.5z" data-original="#879AD8" class="" data-old_color="#b1b1b1"/><path style="fill:#B1B1B1" d="M18,31.5c0,3.595,1.733,6.778,4.4,8.785c2.182-2.007,3.6-5.19,3.6-8.785s-1.418-6.778-3.6-8.785  C19.733,24.722,18,27.905,18,31.5z" data-original="#879AD8" class="" data-old_color="#b1b1b1"/><path style="fill:#E0E3E4" d="M29,43.5c-6.617,0-12-5.383-12-12s5.383-12,12-12s12,5.383,12,12S35.617,43.5,29,43.5z M29,21.5  c-5.514,0-10,4.486-10,10s4.486,10,10,10s10-4.486,10-10S34.514,21.5,29,21.5z" data-original="#556080" class="" data-old_color="#B1B1B1"/><circle style="fill:#B1B1B1" cx="30.5" cy="28" r="3.5" data-original="#4674E8" class="" data-old_color="#b1b1b1"/><circle style="fill:#B1B1B1" cx="28" cy="29.5" r="2" data-original="#BF4D90" class="" data-old_color="#b1b1b1"/><circle style="fill:#B1B1B1" cx="25" cy="27.5" r="2" data-original="#BCCEF7" class="active-path" data-old_color="#b1b1b1"/></g> </svg>
