<?xml version="1.0"?>
<svg xmlns="http://www.w3.org/2000/svg" xmlns:xlink="http://www.w3.org/1999/xlink" version="1.1" id="Capa_1" x="0px" y="0px" viewBox="0 0 512 512" style="enable-background:new 0 0 512 512;" xml:space="preserve" width="512px" height="512px" class=""><g><path style="fill:#B1B1B1" d="M467,482H347c-8.291,0-15-6.709-15-15V346c0-8.276-6.738-15-15-15h-31c-8.291,0-15-6.709-15-15V196  c0-8.291,6.709-15,15-15h31c90.967,0,165,74.019,165,165v121C482,475.291,475.291,482,467,482z" data-original="#15B7BE" class="" data-old_color="#b1b1b1"/><path style="fill:#E0E3E4" d="M226,331h-31c-90.967,0-165-74.019-165-165V45c0-8.291,6.709-15,15-15h120c8.291,0,15,6.709,15,15  v121c0,8.276,6.738,15,15,15h31c8.291,0,15,6.709,15,15v120C241,324.291,234.291,331,226,331z" data-original="#1BD9DE" class="" data-old_color="#e0e3e4"/><path style="fill:#FFAA2E" d="M180,0H30C13.447,0,0,13.462,0,30s13.447,30,30,30h150c16.553,0,30-13.462,30-30S196.553,0,180,0z" data-original="#B7E0F6" class="" data-old_color="#ffaa2e"/><path style="fill:#121212" d="M482,452H332c-16.553,0-30,13.462-30,30s13.447,30,30,30h150c16.553,0,30-13.462,30-30  S498.553,452,482,452z" data-original="#A4D9F5" class="active-path" data-old_color="#A4D9F5"/><path style="fill:#FFAA2E" d="M256,151c-16.553,0-30,13.462-30,30v150c0,16.538,13.447,30,30,30s30-13.462,30-30V181  C286,164.462,272.553,151,256,151z" data-original="#B7E0F6" class="" data-old_color="#ffaa2e"/><path style="fill:#121212" d="M286,331V181c0-16.538-13.447-30-30-30v210C272.553,361,286,347.538,286,331z" data-original="#A4D9F5" class="active-path" data-old_color="#A4D9F5"/></g> </svg>
