<?xml version="1.0" encoding="UTF-8"?>
<!DOCTYPE svg PUBLIC "-//W3C//DTD SVG 1.1//EN" "http://www.w3.org/Graphics/SVG/1.1/DTD/svg11.dtd">
<!-- Creator: CorelDRAW 2018 (64-Bit Оценочная версия) -->
<svg xmlns="http://www.w3.org/2000/svg" xml:space="preserve" width="60.1132mm" height="13.8006mm" version="1.1" style="shape-rendering:geometricPrecision; text-rendering:geometricPrecision; image-rendering:optimizeQuality; fill-rule:evenodd; clip-rule:evenodd"
viewBox="0 0 6011.32 1380.06"
 xmlns:xlink="http://www.w3.org/1999/xlink">
 <defs>
  <style type="text/css">
   <![CDATA[
    .fil0 {fill:#2B2A29;fill-opacity:0.360784}
   ]]>
  </style>
 </defs>
 <g id="Слой_x0020_1">
  <metadata id="CorelCorpID_0Corel-Layer"/>
  <path class="fil0" d="M276.88 584.22l0 -499.48 103.78 0c74.75,0 129.08,6.03 162.86,17.97 48.51,17.05 86.48,46.38 113.76,88.35 27.27,41.86 40.97,91.71 40.97,149.68 0,50.09 -10.79,94.03 -32.5,132.06 -21.59,38.03 -49.8,66.2 -84.28,84.29 -34.59,18.09 -83.11,27.13 -145.45,27.13l-159.14 0zm48.06 -47.3l57.69 0c68.95,0 116.66,-4.29 143.36,-12.88 37.49,-12.28 67.09,-34.2 88.57,-65.96 21.47,-31.89 32.15,-70.73 32.15,-116.64 0,-48.12 -11.61,-89.39 -34.94,-123.48 -23.21,-34.2 -55.72,-57.63 -97.27,-70.26 -31.23,-9.51 -82.65,-14.26 -154.27,-14.26l-35.29 0 0 403.48zm1098.23 -452.18l286.25 0 0 48.7 -236.11 0 0 156.52 234.02 0 0 48.7 -234.02 0 0 196.86 234.02 0 0 48.7 -284.16 0 0 -499.48zm948.49 406.03l42.48 -25.51c29.95,55.19 64.54,82.79 103.78,82.79 16.83,0 32.62,-3.95 47.36,-11.71 14.74,-7.77 26,-18.32 33.66,-31.42 7.78,-13.11 11.61,-27.02 11.61,-41.74 0,-16.7 -5.69,-33.05 -17.06,-49.16 -15.68,-22.15 -44.23,-48.93 -85.91,-80.12 -41.78,-31.54 -67.78,-54.26 -78,-68.29 -17.76,-23.54 -26.58,-49.04 -26.58,-76.4 0,-21.68 5.22,-41.51 15.67,-59.37 10.45,-17.85 25.19,-31.88 44.23,-42.2 19.03,-10.32 39.58,-15.42 61.87,-15.42 23.68,0 45.85,5.8 66.39,17.51 20.55,11.59 42.37,33.04 65.36,64.23l-40.86 30.95c-18.93,-24.92 -35.06,-41.39 -48.41,-49.27 -13.35,-8 -27.86,-11.94 -43.53,-11.94 -20.31,0 -36.91,6.14 -49.8,18.32 -12.88,12.29 -19.38,27.25 -19.38,45.22 0,10.78 2.32,21.33 6.85,31.53 4.53,10.2 12.88,21.22 24.95,33.28 6.5,6.26 28.21,22.95 64.89,49.85 43.42,32 73.25,60.41 89.38,85.22 16.14,24.93 24.26,49.97 24.26,75.13 0,36.17 -13.81,67.71 -41.32,94.37 -27.63,26.79 -61.18,40.12 -100.64,40.12 -30.42,0 -58.04,-8.11 -82.77,-24.34 -24.72,-16.24 -47.59,-43.49 -68.48,-81.63zm1018.71 -406.03l50.15 0 0 499.48 -50.15 0 0 -499.48zm1275.02 83.71l-38.77 36.64c-27.97,-27.36 -58.62,-48.12 -91.94,-62.26 -33.31,-14.15 -65.81,-21.22 -97.5,-21.22 -39.35,0 -76.84,9.62 -112.37,28.87 -35.63,19.25 -63.26,45.33 -82.76,78.38 -19.62,32.93 -29.37,67.71 -29.37,104.46 0,37.57 10.1,73.28 30.3,107.25 20.2,33.86 48.17,60.4 83.8,79.77 35.76,19.36 74.76,29.1 117.25,29.1 51.54,0 95.18,-14.49 130.82,-43.37 35.64,-28.86 56.76,-66.43 63.38,-112.46l-159.5 0 0 -48.69 215.91 0c-0.46,77.1 -23.44,138.43 -68.95,183.76 -45.62,45.34 -106.44,68.06 -182.82,68.06 -92.64,0 -166,-31.42 -220.09,-94.37 -41.56,-48.47 -62.34,-104.47 -62.34,-168.12 0,-47.19 11.96,-91.25 35.76,-132.06 23.91,-40.69 56.64,-72.58 98.2,-95.54 41.67,-22.95 88.68,-34.43 141.15,-34.43 42.49,0 82.54,7.65 120.03,22.84 37.5,15.31 74.18,39.65 109.81,73.39zm751.96 415.77l0 -499.48 10.8 0 332.57 382.03 0 -382.03 50.15 0 0 499.48 -11.38 0 -330.59 -378.67 0 378.67 -51.55 0zm-5140.94 82.21l5526.24 0 0 679.77 -5526.24 0 0 -679.77zm593.12 199.64l-62.93 59.39c-42.79,-44.81 -90.83,-67.22 -144.36,-67.22 -45.08,0 -83.16,15.34 -114.02,45.9 -30.99,30.56 -46.42,68.2 -46.42,113.01 0,31.21 6.9,58.94 20.58,83.09 13.68,24.25 33.05,43.29 58.01,57.1 25.06,13.82 52.86,20.66 83.5,20.66 26.04,0 49.91,-4.78 71.47,-14.46 21.67,-9.68 45.41,-27.3 71.24,-52.75l60.96 63.3c-34.8,33.83 -67.74,57.32 -98.71,70.37 -30.98,13.16 -66.44,19.69 -106.17,19.69 -73.33,0 -133.41,-23.07 -180.13,-69.29 -46.74,-46.11 -70.05,-105.39 -70.05,-177.49 0,-46.77 10.61,-88.21 31.96,-124.54 21.24,-36.33 51.66,-65.47 91.38,-87.55 39.61,-22.09 82.31,-33.17 128.16,-33.17 38.85,0 76.28,8.15 112.39,24.47 36.01,16.31 67.09,39.47 93.14,69.49zm666.24 -93.96c66.65,0 124,24.04 171.93,72 48.06,47.96 72.02,106.48 72.02,175.43 0,68.41 -23.64,126.27 -71.03,173.58 -47.28,47.32 -104.73,71.03 -172.27,71.03 -70.81,0 -129.57,-24.37 -176.31,-72.99 -46.84,-48.61 -70.25,-106.36 -70.25,-173.25 0,-44.7 10.94,-85.92 32.72,-123.56 21.77,-37.52 51.77,-67.32 89.85,-89.29 38.19,-21.97 79.34,-32.95 123.34,-32.95zm-1.31 87.43c-43.45,0 -80,15.13 -109.55,45.26 -29.66,30.13 -44.43,68.41 -44.43,114.96 0,51.77 18.6,92.77 55.92,122.9 29,23.6 62.17,35.34 99.7,35.34 42.36,0 78.47,-15.33 108.24,-45.89 29.87,-30.56 44.76,-68.2 44.76,-113 0,-44.6 -14.99,-82.34 -45.09,-113.23 -29.99,-30.89 -66.54,-46.34 -109.55,-46.34zm696.44 -75.69l85.15 0 203.12 308.34 0 -308.34 89.31 0 0 468.55 -85.8 0 -202.47 -307.36 0 307.36 -89.31 0 0 -468.55zm1283.72 82.22l-62.94 59.39c-42.78,-44.81 -90.83,-67.22 -144.35,-67.22 -45.08,0 -83.17,15.34 -114.03,45.9 -30.97,30.56 -46.41,68.2 -46.41,113.01 0,31.21 6.89,58.94 20.58,83.09 13.67,24.25 33.05,43.29 58,57.1 25.07,13.82 52.86,20.66 83.5,20.66 26.05,0 49.91,-4.78 71.47,-14.46 21.67,-9.68 45.43,-27.3 71.24,-52.75l60.97 63.3c-34.8,33.83 -67.75,57.32 -98.72,70.37 -30.97,13.16 -66.43,19.69 -106.15,19.69 -73.34,0 -133.42,-23.07 -180.15,-69.29 -46.74,-46.11 -70.05,-105.39 -70.05,-177.49 0,-46.77 10.62,-88.21 31.96,-124.54 21.23,-36.33 51.66,-65.47 91.39,-87.55 39.62,-22.09 82.3,-33.17 128.15,-33.17 38.86,0 76.29,8.15 112.4,24.47 36.01,16.31 67.09,39.47 93.14,69.49zm444.62 -82.22l257.41 0 0 87.44 -168.11 0 0 84.19 168.11 0 0 86.14 -168.11 0 0 123.34 168.11 0 0 87.44 -257.41 0 0 -468.55zm705.42 0l95.32 0c51.55,0 88.66,4.69 111.42,14.14 22.75,9.45 40.82,24.8 53.95,45.89 13.13,21.1 19.7,46.45 19.7,76.03 0,32.74 -8.65,59.93 -25.94,81.58 -17.18,21.64 -40.6,36.75 -70.26,45.24 -17.41,4.89 -49.04,7.28 -94.89,7.28l0 198.39 -89.3 0 0 -468.55zm89.3 183.38l28.79 0c22.65,0 38.3,-1.64 47.17,-4.79 8.87,-3.27 15.76,-8.49 20.9,-15.88 5.03,-7.4 7.55,-16.31 7.55,-26.86 0,-18.17 -7.11,-31.44 -21.34,-39.71 -10.28,-6.19 -29.57,-9.34 -57.56,-9.34l-25.51 0 0 96.58zm598.39 -183.38l260.7 0 0 88.1 -86.03 0 0 380.45 -91.27 0 0 -380.45 -83.4 0 0 -88.1z"/>
 </g>
</svg>
