<?xml version="1.0" encoding="UTF-8"?>
<!DOCTYPE svg PUBLIC "-//W3C//DTD SVG 1.1//EN" "http://www.w3.org/Graphics/SVG/1.1/DTD/svg11.dtd">
<!-- Creator: CorelDRAW 2018 (64-Bit Оценочная версия) -->
<svg xmlns="http://www.w3.org/2000/svg" xml:space="preserve" width="52.4086mm" height="21.336mm" version="1.1" style="shape-rendering:geometricPrecision; text-rendering:geometricPrecision; image-rendering:optimizeQuality; fill-rule:evenodd; clip-rule:evenodd"
viewBox="0 0 5240.86 2133.6"
 xmlns:xlink="http://www.w3.org/1999/xlink">
 <defs>
  <style type="text/css">
   <![CDATA[
    .fil0 {fill:#2B2A29;fill-opacity:0.360784}
   ]]>
  </style>
 </defs>
 <g id="Слой_x0020_1">
  <metadata id="CorelCorpID_0Corel-Layer"/>
  <path class="fil0" d="M163.36 456.63l88.28 -443.93 92.24 18.3c66.44,13.18 113.66,28.12 141.57,44.69 40.11,23.7 68.66,56.47 85.49,98.58 16.84,42.01 20.21,88.74 9.96,140.26 -8.85,44.51 -26.21,81.67 -52.23,111.64 -25.91,29.99 -55.96,50.06 -89.8,60.05 -33.94,9.98 -78.66,9.46 -134.06,-1.53l-141.45 -28.06zm51.07 -33.57l51.28 10.17c61.28,12.16 104.44,16.76 129.69,13.84 35.5,-4.31 65.67,-18.57 90.38,-43.01 24.72,-24.56 41.08,-57.19 49.19,-98 8.5,-42.77 5.48,-81.5 -9.23,-115.91 -14.59,-34.49 -39.34,-61.04 -74.04,-79.6 -26.07,-13.95 -70.93,-27.24 -134.59,-39.87l-31.36 -6.22 -71.32 358.6zm1056.01 -208.24l254.42 50.47 -8.61 43.29 -209.85 -41.64 -27.66 139.12 207.99 41.26 -8.61 43.28 -207.99 -41.26 -34.79 174.97 207.99 41.26 -8.61 43.28 -252.56 -50.1 88.28 -443.93zm771.24 528.12l42.26 -15.18c16.87,54.33 42.73,84.95 77.61,91.87 14.96,2.97 29.68,2.25 44.16,-2.06 14.47,-4.3 26.35,-11.69 35.47,-21.99 9.23,-10.27 15.09,-21.96 17.69,-35.05 2.95,-14.84 0.79,-30.37 -6.47,-46.7 -10.02,-22.44 -30.66,-51.28 -62.19,-86.35 -31.56,-35.4 -50.66,-60.18 -57.26,-74.45 -11.62,-24.05 -14.96,-48.27 -10.12,-72.59 3.83,-19.27 11.98,-35.97 24.42,-50 12.44,-14.03 28.02,-23.9 46.77,-29.71 18.74,-5.81 37.9,-6.73 57.71,-2.8 21.05,4.18 39.73,13.24 55.92,27.27 16.21,13.93 31.82,36.84 46.73,68.61l-41.78 20.31c-12.42,-25.49 -23.84,-42.97 -34.32,-52.33 -10.45,-9.46 -22.65,-15.52 -36.57,-18.29 -18.06,-3.58 -33.9,-1.04 -47.5,7.5 -13.62,8.65 -22.05,20.8 -25.22,36.77 -1.91,9.58 -1.71,19.37 0.51,29.24 2.22,9.87 7.7,21.13 16.3,33.97 4.67,6.71 21.01,25.38 48.86,55.76 32.93,36.09 54.42,66.6 64.38,91.5 9.93,25 12.73,48.69 8.28,71.05 -6.39,32.15 -24.24,57.74 -53.41,76.59 -29.28,18.93 -61.46,24.87 -96.54,17.91 -27.03,-5.36 -50.14,-17.45 -69.25,-36.23 -19.11,-18.79 -34.62,-47.04 -46.44,-84.62zm977.18 -181.25l44.56 8.84 -88.28 443.93 -44.57 -8.84 88.29 -443.93zm1118.41 299.22l-40.93 25.73c-20.03,-29.25 -43.6,-53.1 -70.71,-71.55 -27.11,-18.45 -54.75,-30.46 -82.91,-36.05 -34.97,-6.94 -70,-5 -104.97,5.85 -35.08,10.82 -64.24,29.13 -87.41,55.06 -23.26,25.81 -38.07,55 -44.57,87.67 -6.64,33.38 -3.97,66.91 7.97,100.66 11.97,33.65 32.14,62.18 60.39,85.67 28.36,23.52 61.3,39.05 99.06,46.54 45.81,9.09 87.16,3.91 123.93,-15.47 36.78,-19.38 62.2,-49.04 76.21,-88.78l-141.75 -28.12 8.6 -43.29 191.9 38.08c-14.04,68.44 -45.31,118.9 -93.76,151.17 -48.56,32.25 -106.64,41.72 -174.52,28.25 -82.33,-16.33 -141.98,-57.19 -178.93,-122.69 -28.37,-50.4 -36.94,-103.84 -25.69,-160.41 8.34,-41.94 26.75,-78.99 55.12,-111.06 28.44,-31.96 63.17,-54.52 104.17,-67.6 41.09,-13.06 84.9,-14.97 131.53,-5.71 37.76,7.49 72.01,21.35 102.65,41.46 30.61,20.21 58.91,48.32 84.62,84.59zm594.85 502.12l88.28 -443.93 9.59 1.9 228.06 398.19 67.52 -339.55 44.57 8.85 -88.28 443.92 -10.11 -2 -226.9 -394.85 -66.92 336.56 -45.81 -9.09zm-4583.71 -833.42l4911.62 974.42 -120.15 604.17 -4911.61 -974.42 120.14 -604.17zm491.87 282.02l-66.42 41.69c-30.12,-47.37 -68.86,-75.76 -116.43,-85.2 -40.06,-7.94 -76.63,-1.03 -109.45,20.69 -32.94,21.7 -53.31,52.43 -61.23,92.26 -5.52,27.73 -4.29,53.6 3.61,77.47 7.87,23.97 21.72,44.31 41.46,60.98 19.83,16.7 43.33,27.69 70.56,33.09 23.15,4.59 45.21,4.55 66.08,-0.25 20.97,-4.78 45.19,-16.26 72.64,-34.32l42.99 67.01c-36.91,23.93 -70.34,39 -100.17,45.14 -29.86,6.23 -62.53,5.78 -97.84,-1.23 -65.17,-12.93 -114.49,-44.02 -147.85,-93.34 -33.39,-49.23 -43.63,-106.02 -30.89,-170.11 8.27,-41.56 25.03,-76.52 50.41,-105.05 25.3,-28.54 57.49,-49.08 96.7,-61.7 39.11,-12.64 79.01,-14.97 119.77,-6.88 34.53,6.85 66.36,20.69 95.56,41.56 29.13,20.85 52.65,46.92 70.5,78.19zm608.75 33.96c59.24,11.76 105.96,43.23 140.09,94.31 34.23,51.11 45.18,107.34 32.99,168.62 -12.09,60.8 -43.32,108.06 -93.8,141.75 -50.39,33.72 -105.64,44.66 -165.67,32.75 -62.93,-12.48 -110.85,-44.5 -143.8,-95.95 -33.03,-51.46 -43.64,-106.92 -31.81,-166.37 7.9,-39.73 24.91,-74.44 50.91,-104.05 25.99,-29.51 57.92,-50.71 95.65,-63.52 37.82,-12.79 76.34,-15.3 115.44,-7.54zm-16.62 77.48c-38.61,-7.66 -73.77,-0.66 -105.36,20.91 -31.69,21.55 -51.59,52.97 -59.81,94.34 -9.15,46.01 0.14,85.74 27.98,119.09 21.6,26.09 49,42.38 82.36,49 37.65,7.46 72.46,0.2 104.32,-21.71 31.95,-21.89 51.83,-52.72 59.75,-92.54 7.88,-39.64 1.23,-75.83 -20.06,-108.58 -21.19,-32.75 -50.95,-52.92 -89.18,-60.51zm632.37 55.53l75.67 15.01 126.04 309.87 54.5 -274.05 79.37 15.75 -82.82 416.43 -76.25 -15.12 -125.63 -308.88 -54.33 273.17 -79.37 -15.74 82.82 -416.44zm1126.41 299.43l-66.44 41.69c-30.1,-47.37 -68.85,-75.76 -116.42,-85.2 -40.06,-7.95 -76.63,-1.03 -109.46,20.69 -32.93,21.7 -53.3,52.43 -61.22,92.26 -5.51,27.73 -4.29,53.6 3.6,77.47 7.87,23.97 21.73,44.31 41.46,60.98 19.84,16.7 43.33,27.69 70.57,33.09 23.15,4.59 45.2,4.55 66.08,-0.26 20.97,-4.78 45.19,-16.25 72.64,-34.32l42.99 67.01c-36.9,23.93 -70.34,39.01 -100.17,45.14 -29.86,6.23 -62.53,5.78 -97.83,-1.22 -65.18,-12.93 -114.51,-44.02 -147.86,-93.34 -33.4,-49.23 -43.63,-106.03 -30.89,-170.11 8.27,-41.57 25.02,-76.52 50.41,-105.05 25.3,-28.55 57.49,-49.08 96.7,-61.7 39.12,-12.64 79.01,-14.97 119.77,-6.89 34.54,6.86 66.36,20.7 95.57,41.57 29.12,20.85 52.65,46.92 70.5,78.19zm409.7 5.32l228.78 45.39 -15.46 77.72 -149.41 -29.65 -14.88 74.83 149.41 29.64 -15.22 76.56 -149.41 -29.64 -21.8 109.62 149.41 29.64 -15.46 77.72 -228.78 -45.39 82.82 -416.44zm626.96 124.38l84.72 16.81c45.82,9.09 77.97,19.8 96.53,32.22 18.55,12.41 31.9,29.24 39.84,50.3 7.94,21.06 9.3,44.75 4.07,71.04 -5.79,29.1 -18.28,51.74 -37.48,67.93 -19.09,16.21 -42.57,25.51 -70.44,27.83 -16.33,1.28 -44.87,-2.18 -85.62,-10.26l-35.06 176.32 -79.37 -15.75 82.81 -416.44zm46.96 178.73l25.58 5.08c20.14,3.99 34.34,5.3 42.78,4.06 8.45,-1.34 15.5,-4.76 21.38,-10.43 5.78,-5.68 9.59,-13.16 11.46,-22.54 3.21,-16.15 -0.76,-29.19 -11.95,-39.05 -8.04,-7.32 -24.63,-13.52 -49.51,-18.46l-22.67 -4.5 -17.07 85.84zm564.25 -57.47l231.7 45.97 -15.57 78.3 -76.46 -15.17 -67.24 338.14 -81.13 -16.09 67.25 -338.14 -74.12 -14.71 15.57 -78.3z"/>
 </g>
</svg>
