<svg id="Layer_1" viewBox="0 0 137.3 139.3" xmlns="http://www.w3.org/2000/svg" xmlns:xlink="http://www.w3.org/1999/xlink"><style>.st2{fill:#215c6d}.st4{fill:#3b4a51}</style><circle cx="68.7" cy="69.8" id="XMLID_384_" r="66.2" fill="#2c8aaa"/><g id="XMLID_381_"><defs><circle cx="68.8" cy="69.8" id="XMLID_382_" r="66.2"/></defs><clipPath id="XMLID_135_"><use xlink:href="#XMLID_382_" overflow="visible"/></clipPath><path id="XMLID_383_" opacity=".19" clip-path="url(#XMLID_135_)" fill="#070808" d="M94.5 41.6l42 40.4-2.4 54-44.8-1.9L44.8 98z"/></g><g id="XMLID_330_"><circle class="st2" cx="68.8" cy="69" id="XMLID_378_" r="37.6"/><circle cx="68.7" cy="69" id="XMLID_377_" r="32.5" fill="#fff"/><path class="st4" d="M67.5 69.9l.3 18.4s1.4 1.8 2.4 0l-.4-18.1h-.1c-.3.1-.4.3-1.3.2-.3 0-.6-.2-.9-.5z" id="XMLID_374_"/><path class="st4" d="M70.5 69.9l18.9-.1s1.7-.8-.1-1.8l-18.7.3s.1.4.1.8c0 .3-.2.8-.2.8z" id="XMLID_371_"/><g id="XMLID_332_"><g id="XMLID_39_"><g id="XMLID_42_"><path class="st2" id="XMLID_43_" transform="rotate(134.999 64.766 64.802)" d="M64.5 53.6h.6v22.5h-.6z"/></g><circle class="st2" cx="72.6" cy="72.6" id="XMLID_41_" r=".5"/><circle class="st2" cx="57" cy="57" id="XMLID_40_" r=".6"/></g></g><circle cx="68.8" cy="69" id="XMLID_331_" r="2.1" fill="#fff" stroke="#235c6d" stroke-miterlimit="10"/></g></svg>