<svg viewBox="0 0 512 512" xmlns="http://www.w3.org/2000/svg"><circle cx="256" cy="256" r="250" fill="#3bafda"/><path d="M351.5 189c-.8.1-1.5.1-2.3.2-31.3-4.4-64.5-23.1-87.6-49.3-.5-.3-.8-.7-1.2-1.1-.3-.3-.5-.5-.7-.8-.1-.1-.2-.3-.3-.3-.3-.4-.5-.8-.7-1.2-1.2-1.2-2-2.8-2.3-4.5l-1.3-1c-18.8 24.2-56 53.8-98.7 57.6l.3 2.6c.1.5.2 1 .3 1.4.3 1 .5 2 .5 3.1.1.7.3 1.4.3 2h.1c.1.7.1 1.4.2 2 1.6 14.3 4.6 28.6 9 42.8 20.6 67.6 38.2 91.4 87.6 138.4l.7-.7.7.7c43.4-42.3 68.8-75.1 88.7-141.5 4.8-15.8 9.3-32.7 10.7-50.2l-4-.2zm-97.6 75.9l-9.8 9.8-21.6-21.4 10-10 11.6 11.5 34-33.7 10 10-34.2 33.8z" fill="#fff"/></svg>