<?xml version="1.0" ?><svg id="Layer_1" style="enable-background:new 0 0 512 512;" version="1.1" viewBox="0 0 512 512" xml:space="preserve" xmlns="http://www.w3.org/2000/svg" xmlns:xlink="http://www.w3.org/1999/xlink"><style type="text/css">
	.st0{fill:#3BAFDA;}
	.st1{fill:#FFFFFF;}
</style><circle class="st0" cx="256" cy="256" r="250"/><g id="XMLID_1012_"><path class="st1" d="M204.4,261.8" id="XMLID_1009_"/><g id="XMLID_617_"><g id="XMLID_616_"><path class="st1" d="M351.5,189c-0.8,0.1-1.5,0.1-2.3,0.2c-31.3-4.4-64.5-23.1-87.6-49.3     c-0.5-0.3-0.8-0.7-1.2-1.1c-0.3-0.3-0.5-0.5-0.7-0.8c-0.1-0.1-0.2-0.3-0.3-0.3c-0.3-0.4-0.5-0.8-0.7-1.2c-1.2-1.2-2-2.8-2.3-4.5     l-1.3-1c-18.8,24.2-56,53.8-98.7,57.6l0.3,2.6c0.1,0.5,0.2,1,0.3,1.4c0.3,1,0.5,2,0.5,3.1l0,0c0.1,0.7,0.3,1.4,0.3,2     c0,0,0,0,0.1,0c0.1,0.7,0.1,1.4,0.2,2c1.6,14.3,4.6,28.6,9,42.8c20.6,67.6,38.2,91.4,87.6,138.4l0.7-0.7l0.7,0.7     c43.4-42.3,68.8-75.1,88.7-141.5c4.8-15.8,9.3-32.7,10.7-50.2L351.5,189z M253.9,264.9l-9.8,9.8l-21.6-21.4l10-10l11.6,11.5     l34-33.7l10,10L253.9,264.9z" id="XMLID_688_"/></g></g></g></svg>