<svg height="512" width="512" xmlns="http://www.w3.org/2000/svg"><path d="M512 256c0 141.385-114.615 256-256 256S0 397.385 0 256 114.615 0 256 0s256 114.615 256 256z" fill="#00a1f1"/><path d="M364.672 89.065c-2.522.03-5.173.102-7.894.273-21.778 1.424-45.89 8.013-72.402 19.824a93.168 93.168 0 0 0-11.341-.68c-36.448 0-68.747 11.099-96.9 33.298-28.152 22.209-46.517 50.538-55.027 85.013 23.644-29.74 50.129-51.719 79.479-65.87-3.3 2.825-10.85 10.397-22.683 22.682-20.343 19.838-37.999 41.91-52.895 66.233-14.918 24.324-25.551 46.658-31.937 66.959-6.396 20.311-9.572 38.73-9.572 55.255 0 16.536 3.759 28.354 11.342 35.43 21.767 21.723 57.503 20.556 107.197-3.539 22.241 10.872 45.917 16.285 70.996 16.285 33.589 0 63.878-9.797 90.865-29.396 26.966-19.577 45.892-44.733 56.797-75.44h-84.515c-6.148 10.86-14.542 19.47-25.177 25.857-10.646 6.362-22.512 9.525-35.52 9.525-13.01 0-24.83-3.163-35.476-9.525-10.646-6.376-19.04-14.985-25.178-25.858-5.23-10.378-7.848-21.28-7.848-32.617v-.681h220.791c.464-5.21.726-11.08.726-17.693 0-27.86-6.876-53.851-20.596-77.981 14.67-39.198 12.991-68.043-4.99-86.466-7.872-7.437-20.595-11.046-38.242-10.888zm11.704 19.235c10.773.072 19.14 3.241 25.132 9.436 11.822 11.82 12.3 32.321 1.406 61.606-17.981-27.398-42.125-47.198-72.402-59.474 18.348-7.776 33.654-11.652 45.864-11.568zm-103.704 71.042c17.269 0 32.31 6.062 45.092 18.1 12.771 12.048 19.601 26.539 20.55 43.551h-131.33c.949-17.012 7.802-31.503 20.595-43.55 12.771-12.039 27.802-18.101 45.093-18.101zm-147.3 137.455c12.782 34.969 35.03 62.112 66.732 81.475-36.459 16.524-61.53 17.964-75.26 4.265-15.608-15.587-12.764-44.17 8.528-85.74z" fill="#fff"/><path d="M74.98 437.02c99.975 99.974 262.065 99.974 362.04 0 99.974-99.975 99.974-262.065 0-362.04L74.98 437.02z" fill-opacity=".304"/></svg>